<svg width="86" height="86" viewBox="0 0 86 86" fill="none" xmlns="http://www.w3.org/2000/svg">
<path d="M70.3701 39.6223C71.3495 38.5834 71.8866 37.241 71.8791 35.822C72.9283 34.7858 73.5162 33.3946 73.5162 31.9032C73.5162 30.4118 72.9283 29.0207 71.8791 27.9844C71.8879 26.5099 71.3204 25.1093 70.2665 24.0561C69.212 23.0022 67.7558 22.4611 66.3368 22.4435C65.3019 21.3943 63.9108 20.8065 62.4194 20.8065C60.928 20.8065 59.5368 21.3943 58.5006 22.4435C57.0193 22.4611 55.6268 23.0022 54.5723 24.0561C53.5184 25.1107 52.9508 26.5099 52.9596 27.9858C52.9332 28.0122 52.9149 28.044 52.8885 28.0718C51.0273 27.9207 49.0225 27.8185 46.9453 27.7724L50.5322 6.25277C50.8661 4.23647 52.5932 2.77419 54.6366 2.77419H67.9678V0H54.6366C51.2312 0 48.354 2.4369 47.7953 5.7956L44.1372 27.7433C41.8473 27.7474 39.8289 27.7988 38.0436 27.8903L27.9181 15.0027C28.6793 13.8893 29.1291 12.5448 29.1291 11.0968C32.9531 11.0968 36.0645 7.98529 36.0645 4.16129V0H11.0968V23.5806H15.2581C18.608 23.5806 21.4099 21.1932 22.0534 18.0323H22.1936C23.5624 18.0323 24.8316 17.6205 25.9085 16.9337L34.7039 28.1287C28.0291 28.7626 25.7819 30.0623 25.1689 31.167L13.871 45.2872V48.7326C13.871 62.3767 18.9256 75.4498 28.1023 85.5449L28.5161 86H60.2595L60.672 85.5462C69.8486 75.4512 74.9033 62.378 74.9033 48.734V45.2886L70.3701 39.6223ZM33.2903 4.16129C33.2903 6.45528 31.4231 8.32258 29.1291 8.32258H28.0955L17.9239 2.77419H33.2903V4.16129ZM15.2581 20.8065H13.871V6.82712L19.3889 16.9432C19.2338 19.0976 17.4512 20.8065 15.2581 20.8065ZM22.1936 15.2581H21.6307L15.9598 4.86297L26.3549 10.5339V11.0968C26.3549 13.3908 24.4876 15.2581 22.1936 15.2581ZM26.5696 33.8552C28.7491 35.0174 33.6798 36.0645 44.3871 36.0645C47.3584 36.0645 50.2715 35.948 52.8885 35.736C52.9149 35.7624 52.9332 35.7956 52.9596 35.822C52.9508 37.2965 53.5184 38.6972 54.5723 39.7503C55.6268 40.8042 57.0335 41.3589 58.5006 41.363C59.5368 42.4121 60.928 43 62.4194 43C63.9108 43 65.3019 42.4121 66.3382 41.363C66.9024 41.3562 67.453 41.2465 67.9874 41.0833L72.0864 46.2056C71.8615 49.0618 69.4924 51.3226 66.5807 51.3226C64.8285 51.3226 63.2111 50.5017 62.1444 49.0685L61.0323 47.5758L59.9202 49.0685C58.8534 50.5017 57.2361 51.3226 55.4839 51.3226C53.7317 51.3226 52.1144 50.5017 51.0476 49.0685L49.9355 47.5758L48.8234 49.0685C47.7567 50.5017 46.1393 51.3226 44.3871 51.3226C42.635 51.3226 41.0176 50.5017 39.9509 49.0685L38.8387 47.5758L37.7266 49.0685C36.6599 50.5017 35.0425 51.3226 33.2903 51.3226C31.5382 51.3226 29.9208 50.5017 28.8541 49.0685L27.742 47.5758L26.6298 49.0685C25.5631 50.5017 23.9457 51.3226 22.1936 51.3226C19.2819 51.3226 16.9127 49.0618 16.6879 46.2056L26.5696 33.8552ZM55.2218 29.6892L55.8835 29.1954L55.7657 28.3799C55.6376 27.4947 55.918 26.6352 56.5351 26.0175C57.1514 25.4019 58.0156 25.1242 58.8961 25.2481L59.7116 25.366L60.2053 24.7043C61.2734 23.2752 63.5654 23.2752 64.6321 24.7043L65.1258 25.366L65.9413 25.2481C66.8279 25.1201 67.686 25.4005 68.3037 26.0175C68.9207 26.6339 69.2011 27.4934 69.0731 28.3786L68.9553 29.1941L69.617 29.6878C70.3315 30.2235 70.742 31.0309 70.742 31.9032C70.742 32.7756 70.3315 33.5829 69.617 34.1173L68.9553 34.611L69.0731 35.4265C69.2011 36.3117 68.9207 37.1712 68.3037 37.7889C67.6874 38.4059 66.8279 38.689 65.9413 38.5583L65.1258 38.4405L64.6321 39.1022C63.564 40.5313 61.272 40.5313 60.2053 39.1022L59.7116 38.4405L58.8961 38.5583C58.0129 38.6877 57.1514 38.4059 56.5337 37.7889C55.9167 37.1726 55.6363 36.3131 55.7643 35.4279L55.8821 34.6124L55.2204 34.1187C54.5072 33.5829 54.0968 32.7756 54.0968 31.9032C54.0968 31.0309 54.5072 30.2235 55.2218 29.6892ZM51.4499 30.7423C51.37 31.1196 51.3226 31.5063 51.3226 31.9032C51.3226 32.3001 51.37 32.6869 51.4499 33.0641C49.7316 33.1792 47.9009 33.2477 46.0269 33.2734L46.4833 30.5371C48.1989 30.569 49.8705 30.6367 51.4499 30.7423ZM43.6726 30.5243L43.2134 33.2768C42.8957 33.2734 42.5754 33.2707 42.2665 33.2653L40.1703 30.5981C41.2716 30.5574 42.4338 30.5317 43.6726 30.5243ZM36.7832 30.7755L38.6444 33.1447C33.9297 32.8988 30.6604 32.3787 28.9265 31.9032C30.4234 31.4914 33.0587 31.0471 36.7832 30.7755ZM59.0268 83.2258H29.7474C22.0358 74.5395 17.5026 63.6012 16.7644 52.069C18.224 53.328 20.1183 54.0968 22.1936 54.0968C24.2756 54.0968 26.2275 53.3314 27.742 51.9538C29.2564 53.3314 31.2084 54.0968 33.2903 54.0968C35.3723 54.0968 37.3243 53.3314 38.8387 51.9538C40.3532 53.3314 42.3051 54.0968 44.3871 54.0968C46.4691 54.0968 48.4211 53.3314 49.9355 51.9538C51.4499 53.3314 53.4019 54.0968 55.4839 54.0968C57.5659 54.0968 59.5179 53.3314 61.0323 51.9538C62.5467 53.3314 64.4987 54.0968 66.5807 54.0968C68.6559 54.0968 70.5503 53.328 72.0099 52.069C71.2716 63.6012 66.7405 74.5395 59.0268 83.2258Z" fill="#FFED8F"/>
<path d="M21.4722 62.8162C23.349 69.1022 26.4171 74.866 30.594 79.945L32.737 78.184C28.7978 73.3915 25.9011 67.9542 24.1299 62.0225L21.4722 62.8162Z" fill="#FFED8F"/>
<path d="M22.8675 56.6353L20.1339 57.1066C20.2985 58.065 20.4915 59.018 20.7123 59.9614L23.4127 59.3302C23.2048 58.4382 23.0232 57.5394 22.8675 56.6353Z" fill="#FFED8F"/>
<path d="M62.4193 36.0645C64.7133 36.0645 66.5806 34.1972 66.5806 31.9032C66.5806 29.6092 64.7133 27.7419 62.4193 27.7419C60.1254 27.7419 58.2581 29.6092 58.2581 31.9032C58.2581 34.1972 60.1254 36.0645 62.4193 36.0645ZM62.4193 30.5161C63.1833 30.5161 63.8064 31.1392 63.8064 31.9032C63.8064 32.6672 63.1833 33.2903 62.4193 33.2903C61.6554 33.2903 61.0322 32.6672 61.0322 31.9032C61.0322 31.1392 61.6554 30.5161 62.4193 30.5161Z" fill="#FFED8F"/>
</svg>
