<svg width="29" height="29" viewBox="0 0 29 29" fill="none" xmlns="http://www.w3.org/2000/svg">
<path d="M22.895 22.778C23.7046 22.778 24.481 23.0944 25.0535 23.6576C25.626 24.2208 25.9476 24.9846 25.9476 25.7811C25.9476 26.5776 25.626 27.3415 25.0535 27.9047C24.481 28.4679 23.7046 28.7843 22.895 28.7843C22.0853 28.7843 21.3089 28.4679 20.7364 27.9047C20.1639 27.3415 19.8423 26.5776 19.8423 25.7811C19.8423 24.9846 20.1639 24.2208 20.7364 23.6576C21.3089 23.0944 22.0853 22.778 22.895 22.778ZM22.895 24.2796C22.4902 24.2796 22.1019 24.4378 21.8157 24.7194C21.5294 25.001 21.3686 25.3829 21.3686 25.7811C21.3686 26.1794 21.5294 26.5613 21.8157 26.8429C22.1019 27.1245 22.4902 27.2827 22.895 27.2827C23.2998 27.2827 23.688 27.1245 23.9742 26.8429C24.2605 26.5613 24.4213 26.1794 24.4213 25.7811C24.4213 25.3829 24.2605 25.001 23.9742 24.7194C23.688 24.4378 23.2998 24.2796 22.895 24.2796ZM9.15799 22.778C9.9676 22.778 10.7441 23.0944 11.3165 23.6576C11.889 24.2208 12.2106 24.9846 12.2106 25.7811C12.2106 26.5776 11.889 27.3415 11.3165 27.9047C10.7441 28.4679 9.9676 28.7843 9.15799 28.7843C8.34837 28.7843 7.57191 28.4679 6.99943 27.9047C6.42694 27.3415 6.10532 26.5776 6.10532 25.7811C6.10532 24.9846 6.42694 24.2208 6.99943 23.6576C7.57191 23.0944 8.34837 22.778 9.15799 22.778ZM9.15799 24.2796C8.75318 24.2796 8.36495 24.4378 8.07871 24.7194C7.79246 25.001 7.63165 25.3829 7.63165 25.7811C7.63165 26.1794 7.79246 26.5613 8.07871 26.8429C8.36495 27.1245 8.75318 27.2827 9.15799 27.2827C9.56279 27.2827 9.95102 27.1245 10.2373 26.8429C10.5235 26.5613 10.6843 26.1794 10.6843 25.7811C10.6843 25.3829 10.5235 25.001 10.2373 24.7194C9.95102 24.4378 9.56279 24.2796 9.15799 24.2796ZM25.9476 4.75911H4.99568L8.88325 13.7685H21.3686C21.606 13.7689 21.8401 13.7145 22.0522 13.6096C22.2642 13.5048 22.4483 13.3525 22.5897 13.1649L27.1687 7.15863H27.1702C27.3395 6.93543 27.4423 6.67031 27.4673 6.39292C27.4922 6.11552 27.4382 5.83677 27.3114 5.58782C27.1845 5.33886 26.9898 5.12952 26.749 4.98317C26.5082 4.83683 26.2307 4.75925 25.9476 4.75911ZM21.3686 15.2701H8.95346L7.78429 17.6126L7.63165 18.2733C7.63165 18.6715 7.79246 19.0534 8.07871 19.335C8.36495 19.6166 8.75318 19.7748 9.15799 19.7748H25.9476V21.2764H9.15799C8.62647 21.2767 8.10409 21.1404 7.64254 20.8811C7.181 20.6217 6.79628 20.2483 6.52645 19.7978C6.25662 19.3473 6.11104 18.8353 6.1041 18.3125C6.09717 17.7896 6.22912 17.274 6.48691 16.8167L7.58586 14.6034L2.04223 1.75597H0V0.254395H3.05266L4.34852 3.25754H25.9476C26.5244 3.25759 27.0893 3.41839 27.577 3.72131C28.0647 4.02422 28.4552 4.45686 28.7033 4.96911C28.9513 5.48136 29.0468 6.05227 28.9786 6.61569C28.9104 7.17912 28.6814 7.71202 28.318 8.15267L23.8703 13.9878C23.5891 14.3839 23.2148 14.7074 22.7792 14.9306C22.3437 15.1539 21.8598 15.2703 21.3686 15.2701Z" fill="white"/>
</svg>
