<svg width="130" height="130" viewBox="0 0 130 130" fill="none" xmlns="http://www.w3.org/2000/svg">
<g clip-path="url(#clip0)">
<path d="M121.155 11.7227V11.2148C121.155 10.1633 120.303 9.31085 119.251 9.31085C118.199 9.31085 117.347 10.1633 117.347 11.2148V11.7227C117.347 12.7742 118.199 13.6266 119.251 13.6266C120.303 13.6266 121.155 12.7742 121.155 11.7227Z" fill="white"/>
<path d="M117.347 53.4882V53.9962C117.347 55.0477 118.199 55.9001 119.251 55.9001C120.303 55.9001 121.155 55.0477 121.155 53.9962V53.4882C121.155 52.4368 120.303 51.5843 119.251 51.5843C118.199 51.5843 117.347 52.4368 117.347 53.4882Z" fill="white"/>
<path d="M22.7458 11.2148V11.7227C22.7458 12.7742 23.598 13.6266 24.6497 13.6266C25.7014 13.6266 26.5536 12.7742 26.5536 11.7227V11.2148C26.5536 10.1633 25.7014 9.31085 24.6497 9.31085C23.598 9.31085 22.7458 10.1633 22.7458 11.2148Z" fill="white"/>
<path d="M125.49 65.2107C127.969 65.2107 129.987 63.1933 129.987 60.7137V4.49702C129.987 2.01738 127.969 0 125.49 0H113.271C112.219 0 111.367 0.852441 111.367 1.9039C111.367 2.95536 112.219 3.80781 113.271 3.80781H125.49C125.87 3.80781 126.179 4.117 126.179 4.49702V60.7139C126.179 61.094 125.87 61.4031 125.49 61.4031H116.086V47.4222C117.43 46.7083 118.925 46.3291 120.467 46.3291C121.519 46.3291 122.371 45.4766 122.371 44.4252V20.7858C122.371 19.7343 121.519 18.8819 120.467 18.8819C115.305 18.8819 111.105 14.6819 111.105 9.51951C111.105 8.46805 110.252 7.61561 109.201 7.61561H34.6997C33.6479 7.61561 32.7958 8.46805 32.7958 9.51951C32.7958 14.6819 28.5958 18.8819 23.4334 18.8819C22.3817 18.8819 21.5295 19.7343 21.5295 20.7858V27.2771H17.7217V4.49702C17.7217 4.117 18.0309 3.80781 18.4109 3.80781H105.658C106.71 3.80781 107.562 2.95536 107.562 1.9039C107.562 0.852441 106.71 0 105.658 0H18.4109C15.9312 0 13.9139 2.01738 13.9139 4.49702V27.2773H4.51037C2.03073 27.2773 0.0133514 29.2947 0.0133514 31.7741V87.991C0.0133514 90.4707 2.03073 92.488 4.51037 92.488H7.58631C5.82508 95.9833 4.83124 99.9287 4.83124 104.102C4.83124 118.382 16.4491 130 30.7291 130C33.8401 130 36.8247 129.448 39.5902 128.438C40.5271 129.419 41.8363 130 43.255 130H67.7166C70.5159 130 72.7934 127.723 72.7934 124.924V121.294C72.7934 120.094 72.3726 118.991 71.6735 118.121C72.3726 117.251 72.7934 116.148 72.7934 114.948V111.318C72.7934 110.853 72.7252 110.404 72.6074 109.975C75.0114 109.576 76.8521 107.488 76.8521 104.973V101.343C76.8521 98.5435 74.5747 96.2661 71.7755 96.2661H55.4136C54.9978 94.9588 54.4804 93.6964 53.8715 92.4878H78.2612C79.2393 105.882 90.449 116.482 104.089 116.482C109.874 116.482 115.347 114.615 119.915 111.083C120.747 110.44 120.9 109.244 120.257 108.412C119.614 107.579 118.418 107.427 117.586 108.07C113.691 111.082 109.023 112.673 104.089 112.673C91.9084 112.673 81.9987 102.764 81.9987 90.5836C81.9987 78.4032 91.9081 68.4935 104.089 68.4935C116.269 68.4935 126.179 78.403 126.179 90.5836C126.179 95.0218 124.868 99.3017 122.388 102.961C121.798 103.831 122.025 105.015 122.896 105.605C123.766 106.195 124.95 105.967 125.54 105.097C128.449 100.805 129.987 95.7864 129.987 90.5836C129.987 80.6305 124.342 71.9721 116.086 67.638V65.2102H125.49V65.2107ZM25.3375 22.5526C31.0795 21.7179 35.6318 17.1653 36.4665 11.4237H107.434C108.269 17.1656 112.822 21.7179 118.564 22.5526V42.6581C117.717 42.7807 116.889 42.9901 116.086 43.2732V31.7741C116.086 29.2945 114.069 27.2773 111.589 27.2773H73.7165V23.5157C75.4432 23.7353 76.7637 24.3687 76.8 24.3865C77.7385 24.8533 78.8788 24.4735 79.3495 23.5353C79.8209 22.5953 79.4411 21.4514 78.5014 20.9797C78.3777 20.9178 76.37 19.9308 73.7162 19.6899V18.6433C73.7162 17.5918 72.864 16.7394 71.8123 16.7394C70.7606 16.7394 69.9084 17.5918 69.9084 18.6433V19.9562C67.5935 20.5393 66.0095 22.0766 65.2517 24.1075C64.8618 25.1526 64.7308 26.2442 64.8453 27.2773H25.3375V22.5526ZM68.7148 27.2773C68.5544 26.7384 68.5858 26.0654 68.8196 25.4387C68.9628 25.0548 69.2791 24.4448 69.9087 24.0326V27.2773H68.7148ZM8.63879 104.102C8.63879 91.9222 18.5482 82.0125 30.7289 82.0125C42.9095 82.0125 52.819 91.9219 52.819 104.102C52.819 116.283 42.9095 126.192 30.7289 126.192C18.5482 126.192 8.63879 116.283 8.63879 104.102ZM68.9856 111.318V114.948C68.9856 115.648 68.4165 116.217 67.7166 116.217H53.6123C54.6356 114.292 55.4235 112.223 55.9363 110.049H67.7164C68.4165 110.049 68.9856 110.619 68.9856 111.318ZM68.9856 124.923C68.9856 125.623 68.4165 126.192 67.7166 126.192H44.2326C46.8877 124.563 49.228 122.469 51.1395 120.025H67.7166C68.4165 120.025 68.9856 120.594 68.9856 121.294V124.923ZM71.7752 100.074C72.4749 100.074 73.044 100.643 73.044 101.343V104.973C73.044 105.672 72.4749 106.242 71.7752 106.242H67.7166H56.5377C56.5958 105.536 56.6268 104.823 56.6268 104.102C56.6268 102.732 56.5189 101.387 56.313 100.074H71.7752ZM48.0562 84.8724H78.827C78.5471 86.1107 78.3561 87.3823 78.2612 88.6802H51.521C50.4937 87.299 49.3323 86.0234 48.0562 84.8724ZM108.47 65.0589V48.0631C108.47 47.0117 107.618 46.1592 106.566 46.1592C101.404 46.1592 97.204 41.9592 97.204 36.7969C97.204 35.7454 96.3518 34.893 95.3001 34.893H20.7994C19.7477 34.893 18.8955 35.7454 18.8955 36.7969C18.8955 41.9592 14.6955 46.1592 9.53286 46.1592C8.48115 46.1592 7.62896 47.0117 7.62896 48.0631V56.0765C7.62896 57.128 8.48115 57.9804 9.53286 57.9804C10.5846 57.9804 11.4368 57.128 11.4368 56.0765V49.83C17.1787 48.9953 21.7313 44.4427 22.566 38.7008H93.5338C94.3685 44.4427 98.9208 48.9953 104.663 49.83V64.6938C104.472 64.6898 104.281 64.6865 104.089 64.6865C93.1685 64.6865 83.8051 71.4811 80.0039 81.0649H42.5511C39.005 79.2376 34.9852 78.205 30.7289 78.205C27.7674 78.205 24.9212 78.7061 22.2687 79.6255C20.9393 74.554 16.6656 70.6985 11.4368 69.9362V63.6891C11.4368 62.6376 10.5846 61.7852 9.53286 61.7852C8.48115 61.7852 7.62896 62.6376 7.62896 63.6891V71.7025C7.62896 72.7542 8.48115 73.6064 9.53286 73.6064C14.0525 73.6064 17.8725 76.8405 18.717 81.1649C15.2562 82.9845 12.2547 85.5634 9.93675 88.6802H4.51037C4.13035 88.6802 3.82116 88.371 3.82116 87.991V31.7741C3.82116 31.3941 4.13035 31.0851 4.51037 31.0851H111.589C111.969 31.0851 112.278 31.3943 112.278 31.7741V46.3359V46.3417V66.0141C111.047 65.6029 109.775 65.282 108.47 65.0589Z" fill="white"/>
<path d="M51.1292 70.7196C53.0364 71.9673 54.3745 72.392 56.0083 72.5229V73.8448C56.0083 74.8965 56.8604 75.7487 57.9122 75.7487C58.9639 75.7487 59.8161 74.8965 59.8161 73.8448V72.3445C63.1314 71.5347 65.2577 68.7169 65.7247 65.9382C66.3304 62.3366 64.4489 59.2058 60.9315 57.9624C60.5644 57.8327 60.1902 57.6979 59.8158 57.5583V50.7926C61.5397 51.0119 62.859 51.644 62.8991 51.6633C63.8379 52.1306 64.9782 51.7504 65.4488 50.8124C65.9202 49.8723 65.5405 48.7285 64.6007 48.2568C64.4771 48.1949 62.4693 47.2076 59.8158 46.9667V45.9204C59.8158 44.8689 58.9636 44.0164 57.9119 44.0164C56.8602 44.0164 56.008 44.8689 56.008 45.9204V47.233C55.8625 47.2696 55.7171 47.3094 55.5714 47.3534C53.2395 48.0558 51.498 50.047 51.0264 52.5505C50.5941 54.8448 51.3373 57.0635 52.9658 58.3407C53.7523 58.9575 54.7139 59.5228 56.008 60.1125V68.6948C55.0444 68.5732 54.3348 68.2666 53.2133 67.5329C52.333 66.9575 51.1536 67.2039 50.5778 68.0841C50.0026 68.9639 50.2491 70.1438 51.1292 70.7196ZM61.9697 65.3069C61.7766 66.4558 61.046 67.6675 59.8161 68.3077V61.611C62.2279 62.5528 62.0769 64.6695 61.9697 65.3069ZM55.3157 55.3447C54.8179 54.954 54.6029 54.134 54.7687 53.2557C54.8964 52.5772 55.2871 51.7872 56.0083 51.3107V55.8201C55.7564 55.665 55.5226 55.5069 55.3157 55.3447Z" fill="white"/>
<path d="M79.3679 61.7865H84.6419C85.6936 61.7865 86.5458 60.934 86.5458 59.8826C86.5458 58.8311 85.6936 57.9787 84.6419 57.9787H79.3679C78.3162 57.9787 77.464 58.8311 77.464 59.8826C77.464 60.934 78.3164 61.7865 79.3679 61.7865Z" fill="white"/>
<path d="M31.4573 61.7865H36.7316C37.7833 61.7865 38.6355 60.934 38.6355 59.8826C38.6355 58.8311 37.7833 57.9787 36.7316 57.9787H31.4573C30.4056 57.9787 29.5534 58.8311 29.5534 59.8826C29.5534 60.934 30.4056 61.7865 31.4573 61.7865Z" fill="white"/>
<path d="M105.35 36.588C104.299 36.588 103.446 37.4404 103.446 38.4919V38.9998C103.446 40.0513 104.299 40.9037 105.35 40.9037C106.402 40.9037 107.254 40.0513 107.254 38.9998V38.4919C107.254 37.4404 106.402 36.588 105.35 36.588Z" fill="white"/>
<path d="M105.35 83.1772C106.402 83.1772 107.254 82.325 107.254 81.2733V80.7654C107.254 79.7136 106.402 78.8615 105.35 78.8615C104.299 78.8615 103.446 79.7136 103.446 80.7654V81.2733C103.446 82.325 104.299 83.1772 105.35 83.1772Z" fill="white"/>
<path d="M10.7492 36.588C9.69746 36.588 8.84528 37.4404 8.84528 38.4919V38.9998C8.84528 40.0513 9.69746 40.9037 10.7492 40.9037C11.8009 40.9037 12.6531 40.0513 12.6531 38.9998V38.4919C12.6531 37.4404 11.8006 36.588 10.7492 36.588Z" fill="white"/>
<path d="M10.7492 83.1772C11.8009 83.1772 12.6531 82.325 12.6531 81.2733V80.7654C12.6531 79.7136 11.8009 78.8615 10.7492 78.8615C9.69746 78.8615 8.84528 79.7136 8.84528 80.7654V81.2733C8.84528 82.325 9.69746 83.1772 10.7492 83.1772Z" fill="white"/>
<path d="M30.729 86.1917C20.8531 86.1917 12.8181 94.2262 12.8181 104.102C12.8181 113.979 20.8528 122.013 30.729 122.013C40.6052 122.013 48.6399 113.979 48.6399 104.102C48.6399 94.2262 40.6049 86.1917 30.729 86.1917ZM30.729 118.205C22.9524 118.205 16.6259 111.879 16.6259 104.102C16.6259 96.3261 22.9524 89.9995 30.729 89.9995C38.5055 89.9995 44.8321 96.3261 44.8321 104.102C44.8318 111.879 38.5055 118.205 30.729 118.205Z" fill="white"/>
<path d="M104.089 72.6732C94.213 72.6732 86.178 80.7079 86.178 90.5841C86.178 100.46 94.2127 108.495 104.089 108.495C113.965 108.495 122 100.46 122 90.5841C122 80.7079 113.965 72.6732 104.089 72.6732ZM104.089 104.687C96.3123 104.687 89.9858 98.3604 89.9858 90.5841C89.9858 82.8076 96.3123 76.481 104.089 76.481C111.865 76.481 118.192 82.8076 118.192 90.5841C118.192 98.3604 111.865 104.687 104.089 104.687Z" fill="white"/>
<path d="M36.1051 102.198H25.3531C24.3014 102.198 23.4492 103.051 23.4492 104.102C23.4492 105.154 24.3014 106.006 25.3531 106.006H36.1048C37.1566 106.006 38.0087 105.154 38.0087 104.102C38.0087 103.051 37.1566 102.198 36.1051 102.198Z" fill="white"/>
<path d="M109.465 88.6802H98.713C97.6613 88.6802 96.8091 89.5324 96.8091 90.5841C96.8091 91.6359 97.6613 92.488 98.713 92.488H109.465C110.516 92.488 111.369 91.6359 111.369 90.5841C111.369 89.5324 110.516 88.6802 109.465 88.6802Z" fill="white"/>
</g>
<defs>
<clipPath id="clip0">
<rect width="130" height="130" fill="white"/>
</clipPath>
</defs>
</svg>
