<svg width="94" height="94" viewBox="0 0 94 94" fill="none" xmlns="http://www.w3.org/2000/svg">
<g clip-path="url(#clip0)">
<path d="M85.5424 35.5219C81.3262 25.221 73.3486 17.1791 63.08 12.8768C62.7145 12.7225 62.2928 12.8962 62.1398 13.2617C61.9868 13.6273 62.159 14.049 62.5246 14.202C72.4404 18.3553 80.1426 26.1212 84.2129 36.0665C92.6176 56.5954 82.7536 80.1359 62.2248 88.5407C52.2822 92.611 41.3463 92.5661 31.4347 88.4142C21.5244 84.2609 13.8236 76.4968 9.75188 66.5526C1.34712 46.0237 11.2111 22.4832 31.7398 14.0784C32.1067 13.9284 32.2825 13.5083 32.1325 13.1414C31.9822 12.7744 31.5649 12.5972 31.1952 12.7487C9.93298 21.4537 -0.282471 45.8348 8.42234 67.0972C12.6386 77.3968 20.6147 85.4373 30.8792 89.7394C36.0129 91.8904 41.409 92.9774 46.8125 92.9996C52.2131 93.0204 57.6208 91.9792 62.7692 89.8704C84.0318 81.1656 94.2471 56.7843 85.5424 35.5219Z" fill="#FFED8F"/>
<path d="M82.8834 36.611C78.959 27.0227 71.5321 19.5359 61.9734 15.53C61.6079 15.3727 61.1862 15.5505 61.0329 15.9148C60.8799 16.2803 61.0522 16.702 61.4177 16.8551C70.6233 20.7123 77.7736 27.9214 81.5536 37.1556C85.335 46.3884 85.2933 56.5413 81.4348 65.7454C77.579 74.9497 70.3697 82.1015 61.1355 85.8814C51.9014 89.6627 41.7483 89.6197 32.5455 85.7625C23.3414 81.9069 16.1911 74.6974 12.411 65.4632C8.62951 56.2291 8.67121 46.0761 12.5284 36.8719C16.3842 27.6691 23.595 20.5175 32.829 16.7375C33.196 16.5874 33.3717 16.1674 33.2217 15.8004C33.0716 15.4349 32.6543 15.255 32.2846 15.4079C22.6947 19.3337 15.208 26.7592 11.2034 36.3165C7.19751 45.8752 7.1542 56.4195 11.0815 66.0079C15.006 75.5963 22.4315 83.0832 31.9902 87.0891C36.7695 89.0913 41.7942 90.104 46.8243 90.1232C51.8531 90.1439 56.886 89.1741 61.6804 87.2113C71.2688 83.2853 78.7557 75.8598 82.7614 66.3011C86.766 56.7438 86.8094 46.1995 82.8834 36.611Z" fill="#FFED8F"/>
<path d="M63.1153 4.25603C52.8537 -0.040358 41.5304 -0.0868663 31.2308 4.12795C30.864 4.27798 30.6883 4.69824 30.8383 5.06502C30.9522 5.34195 31.2181 5.51003 31.5002 5.51119C31.5913 5.51156 31.6854 5.49505 31.7754 5.45767C41.7194 1.38718 52.6524 1.43064 62.5598 5.58124C62.9268 5.73698 63.3456 5.562 63.5001 5.19629C63.6533 4.83076 63.481 4.40907 63.1153 4.25603Z" fill="#FFED8F"/>
<path d="M62.0088 6.90915C52.4529 2.90452 41.9084 2.86121 32.32 6.78721C31.9532 6.93723 31.7775 7.35732 31.9275 7.72427C32.079 8.09123 32.4992 8.27253 32.8646 8.11693C42.0988 4.33831 52.2531 4.38128 61.4531 8.23435C61.5428 8.27247 61.6368 8.28975 61.7279 8.29013C62.0099 8.29128 62.2772 8.12539 62.3935 7.84941C62.5466 7.48388 62.3743 7.06218 62.0088 6.90915Z" fill="#FFED8F"/>
<path d="M46.4252 22.5702L46.4099 22.5702C46.0143 22.5686 45.6986 22.8887 45.6969 23.2857C45.6953 23.6828 46.0224 24.0054 46.4195 24.007C46.8153 24.0086 47.1391 23.6887 47.1407 23.2917C47.1423 22.8946 46.821 22.5719 46.4252 22.5702Z" fill="#FFED8F"/>
<path d="M47.9036 12.5185L47.8882 12.5184C47.4925 12.5168 47.1768 12.8367 47.1752 13.2338C47.1736 13.6309 47.5007 13.9536 47.8977 13.9552C48.2934 13.9569 48.6173 13.6368 48.619 13.2397C48.6206 12.8426 48.2993 12.5201 47.9036 12.5185Z" fill="#FFED8F"/>
<path d="M47.6472 51.0379L32.1326 13.1413C31.9824 12.7744 31.565 12.5972 31.1954 12.7487C30.8286 12.8989 30.6529 13.319 30.8029 13.6859L46.3175 51.5825C46.4314 51.8595 46.6975 52.0276 46.9793 52.0287C47.0706 52.0291 47.1645 52.0126 47.2547 51.975C47.6215 51.825 47.7974 51.4047 47.6472 51.0379Z" fill="#FFED8F"/>
<path d="M63.0856 12.8782C62.7214 12.7225 62.2998 12.8989 62.1454 13.2632L46.3198 51.0325C46.1668 51.3981 46.339 51.8198 46.7047 51.9728C46.7943 52.0111 46.8882 52.0284 46.9794 52.0287C47.2614 52.0299 47.5288 51.864 47.645 51.588L63.4704 13.8187C63.6236 13.453 63.4513 13.0313 63.0856 12.8782Z" fill="#FFED8F"/>
<path d="M47.6825 42.4171L32.1679 4.52047C32.0177 4.15513 31.6003 3.97654 31.2306 4.12799C30.8639 4.27802 30.6881 4.69828 30.8382 5.06505L46.353 42.9618C46.4669 43.2388 46.7329 43.4069 47.0148 43.408C47.1061 43.4084 47.2 43.3919 47.29 43.3541C47.6568 43.2041 47.8327 42.784 47.6825 42.4171Z" fill="#FFED8F"/>
<path d="M63.1225 4.25771C62.7569 4.10036 62.3367 4.27839 62.1822 4.64248L46.3552 42.4118C46.2022 42.7773 46.3744 43.199 46.7401 43.3521C46.8297 43.3904 46.9236 43.4076 47.0148 43.408C47.2968 43.4092 47.5642 43.2431 47.6802 42.9673L63.5072 5.19797C63.6604 4.83244 63.4882 4.41075 63.1225 4.25771Z" fill="#FFED8F"/>
<path d="M47.1535 9.64197C44.7768 9.63221 42.8353 11.5577 42.8255 13.9347C42.8157 16.3114 44.7412 18.2529 47.118 18.2627C49.4951 18.2724 51.4362 16.3468 51.4462 13.9701C51.4559 11.5931 49.5305 9.65173 47.1535 9.64197ZM47.1239 16.8257C45.54 16.8192 44.2557 15.5244 44.2622 13.9404C44.2688 12.3563 45.5636 11.0722 47.1475 11.0787C48.7317 11.0852 50.0159 12.3799 50.0096 13.964C50.0031 15.548 48.7083 16.8322 47.1239 16.8257Z" fill="#FFED8F"/>
<path d="M44.7526 80.0361L44.7371 80.036C44.3415 80.0344 44.0258 80.3543 44.0241 80.7515C44.0225 81.1486 44.3496 81.4712 44.7467 81.4728C45.1423 81.4744 45.4665 81.1545 45.4681 80.7575C45.4697 80.3602 45.1482 80.0377 44.7526 80.0361Z" fill="#FFED8F"/>
<path d="M53.397 74.3243L53.3816 74.3242C52.986 74.3226 52.6704 74.6425 52.6688 75.0396C52.6672 75.4366 52.9941 75.7594 53.3911 75.761C53.7868 75.7626 54.1107 75.4426 54.1124 75.0455C54.114 74.6484 53.7927 74.3259 53.397 74.3243Z" fill="#FFED8F"/>
<path d="M46.2664 59.9268L46.2509 59.9267C45.8553 59.9251 45.5396 60.245 45.5379 60.6421C45.5363 61.0392 45.8634 61.3619 46.2605 61.3636C46.6563 61.3652 46.9802 61.0451 46.9819 60.648C46.9835 60.251 46.662 59.9284 46.2664 59.9268Z" fill="#FFED8F"/>
<path d="M47.821 32.6337L47.8055 32.6337C47.4099 32.632 47.0942 32.952 47.0926 33.349C47.0909 33.7461 47.418 34.0688 47.8151 34.0705C48.2107 34.0721 48.5347 33.752 48.5363 33.355C48.538 32.9579 48.2166 32.6353 47.821 32.6337Z" fill="#FFED8F"/>
<path d="M45.0241 13.9437L45.0086 13.9436C44.613 13.942 44.2973 14.2619 44.2956 14.659C44.294 15.056 44.6211 15.3788 45.0182 15.3804C45.4138 15.382 45.7379 15.062 45.7396 14.6649C45.7412 14.2678 45.4197 13.9453 45.0241 13.9437Z" fill="#FFED8F"/>
<path d="M53.6272 18.2891L53.6117 18.289C53.2161 18.2874 52.9006 18.6075 52.899 19.0046C52.8973 19.4017 53.2242 19.7244 53.6213 19.726C54.0169 19.7277 54.3409 19.4076 54.3425 19.0105C54.3442 18.6135 54.0228 18.2907 53.6272 18.2891Z" fill="#FFED8F"/>
<path d="M41.9086 72.8403L41.8931 72.8402C41.4975 72.8386 41.1818 73.1585 41.1802 73.5556C41.1785 73.9526 41.5056 74.2754 41.9027 74.277C42.2983 74.2786 42.6225 73.9586 42.6241 73.5615C42.6257 73.1644 42.3042 72.8419 41.9086 72.8403Z" fill="#FFED8F"/>
<path d="M47.6322 78.6111L47.6167 78.6111C47.2211 78.6094 46.9054 78.9294 46.9037 79.3264C46.9021 79.7235 47.2292 80.0463 47.6263 80.0479C48.0219 80.0495 48.3459 79.7294 48.3475 79.3324C48.3491 78.9353 48.0278 78.6128 47.6322 78.6111Z" fill="#FFED8F"/>
<path d="M46.882 75.7344C44.5053 75.7246 42.5638 77.6501 42.554 80.0269C42.5443 82.4038 44.4697 84.3451 46.8466 84.3549C49.2236 84.3647 51.1649 82.4392 51.1747 80.0623C51.1845 77.6855 49.259 75.7441 46.882 75.7344ZM46.8525 82.9181C45.2685 82.9116 43.9843 81.6168 43.9908 80.0328C43.9973 78.4487 45.2921 77.1646 46.8761 77.1711C48.4602 77.1776 49.7444 78.4721 49.7381 80.0564C49.7316 81.6404 48.4368 82.9246 46.8525 82.9181Z" fill="#FFED8F"/>
<path d="M49.1441 66.6948L49.0269 66.5766C48.7474 66.2947 48.293 66.2928 48.0111 66.5724C47.7293 66.8502 47.7275 67.3063 48.0069 67.5882L48.1272 67.7093C48.8721 68.4562 49.112 68.7741 48.8793 69.4186C48.8495 69.5028 48.8226 69.5728 48.7984 69.6288C48.0215 69.1865 47.0487 68.9677 45.6721 70.3359C45.3904 70.6151 45.3885 71.0697 45.6679 71.3516C45.8077 71.4924 45.9913 71.5635 46.1751 71.5642C46.3589 71.565 46.5429 71.4954 46.6835 71.3558C47.5134 70.5314 47.7794 70.6896 48.1489 70.9142C48.4093 71.0739 48.8068 71.3097 49.2831 71.142C49.7904 70.963 50.0394 70.4406 50.231 69.9041C50.7918 68.3462 49.8401 67.3922 49.1441 66.6948Z" fill="#FFED8F"/>
<path d="M48.9295 66.4807L48.8162 66.3652C48.1247 65.662 47.1786 64.6984 45.6132 65.2476C45.075 65.4361 44.5507 65.6809 44.3676 66.1855C44.1931 66.666 44.4284 67.0613 44.5846 67.3228C44.8047 67.6913 44.9636 67.9587 44.1324 68.783C43.8505 69.0625 43.8486 69.5171 44.1283 69.7988C44.2679 69.9398 44.4515 70.0106 44.6352 70.0114C44.8191 70.0121 45.0031 69.943 45.144 69.8032C46.5204 68.438 46.3113 67.4607 45.8753 66.6842C45.9329 66.6607 46.0032 66.6344 46.0888 66.6038C46.7282 66.3834 47.0501 66.6189 47.7921 67.3741L47.9093 67.4925C48.1888 67.7742 48.6434 67.7761 48.9253 67.4966C49.207 67.2172 49.2089 66.7626 48.9295 66.4807Z" fill="#FFED8F"/>
<path d="M46.6879 70.3399L45.148 68.7871C44.8686 68.5052 44.414 68.5034 44.1323 68.783C43.8503 69.0624 43.8485 69.517 44.1281 69.7987L45.668 71.3515C45.8078 71.4923 45.9914 71.5633 46.1751 71.5641C46.3589 71.5648 46.5429 71.4953 46.6837 71.3557C46.9656 71.0762 46.9675 70.6216 46.6879 70.3399Z" fill="#FFED8F"/>
<path d="M48.9651 28.6661C48.7225 28.348 48.2695 28.2913 47.9583 28.5329L47.8261 28.6348C46.9885 29.2839 46.6411 29.4775 46.0334 29.1676C45.9538 29.1267 45.8879 29.0899 45.8332 29.0588C46.3707 28.3495 46.71 27.4095 45.5293 25.8696C45.2864 25.5529 44.8348 25.4948 44.5225 25.7364C44.2071 25.9778 44.1477 26.4292 44.3891 26.7432C45.1025 27.6736 44.9091 27.917 44.6412 28.2527C44.4524 28.4905 44.1645 28.8499 44.2734 29.3499C44.3863 29.8752 44.8719 30.1873 45.3801 30.4475C45.7974 30.6595 46.1815 30.7468 46.5351 30.7483C47.436 30.752 48.1452 30.2049 48.7039 29.772L48.8319 29.6729C49.1471 29.4315 49.2067 28.9799 48.9651 28.6661Z" fill="#FFED8F"/>
<path d="M50.5824 26.4541C50.4641 25.8952 50.2896 25.3458 49.8107 25.0998C49.3513 24.8649 48.9339 25.0498 48.6557 25.1723C48.262 25.3447 47.978 25.467 47.2648 24.5394C47.0235 24.2212 46.5703 24.1647 46.2578 24.406C45.9426 24.6476 45.8831 25.0976 46.1246 25.413C47.3068 26.9571 48.3021 26.8674 49.1257 26.5339C49.1409 26.5929 49.1588 26.666 49.178 26.7531C49.3212 27.423 49.0395 27.7066 48.1977 28.3472L48.0654 28.4491C47.7502 28.6905 47.6906 29.142 47.9322 29.4559C48.0731 29.6404 48.2848 29.7367 48.4992 29.7376C48.6538 29.7382 48.8082 29.6896 48.939 29.589L49.0686 29.4899C49.8541 28.8928 50.9295 28.0734 50.5824 26.4541Z" fill="#FFED8F"/>
<path d="M47.2648 24.5397C47.0235 24.2214 46.5704 24.1649 46.2579 24.4063L44.5225 25.7364C44.2071 25.9778 44.1477 26.4278 44.3891 26.7432C44.5301 26.9276 44.7417 27.024 44.9563 27.0248C45.1107 27.0255 45.2651 26.9769 45.396 26.8766L47.1316 25.5465C47.447 25.3051 47.5064 24.8549 47.2648 24.5397Z" fill="#FFED8F"/>
<path d="M38.9319 83.2268C38.255 82.695 37.4306 82.8782 37.3392 82.9003C36.9584 82.9942 36.7297 83.3736 36.8165 83.7556C36.9032 84.1361 37.2797 84.3721 37.6701 84.2993C37.7318 84.2841 37.9368 84.2694 38.0459 84.3583C38.1591 84.4514 38.2241 84.6999 38.2227 85.0382C38.2211 85.4352 38.5411 85.7578 38.9382 85.7594C39.3353 85.761 39.658 85.441 39.6596 85.0441C39.663 84.2219 39.4185 83.6104 38.9319 83.2268Z" fill="#FFED8F"/>
<path d="M58.3135 84.9606C58.2266 84.5798 57.8501 84.3425 57.4597 84.4167C57.3964 84.4305 57.1918 84.4465 57.0839 84.3576C56.9705 84.2648 56.9057 84.0161 56.9071 83.678C56.9088 83.2809 56.5887 82.9582 56.1916 82.9566C55.7945 82.9549 55.472 83.275 55.4704 83.6721C55.467 84.4943 55.7113 85.1057 56.1981 85.4893C56.5826 85.7913 57.0145 85.8632 57.3317 85.8645C57.5746 85.8655 57.7514 85.8254 57.7907 85.8157C58.1716 85.7218 58.4004 85.3425 58.3135 84.9606Z" fill="#FFED8F"/>
<path d="M39.9363 11.6074C39.8495 11.2269 39.4729 10.9897 39.0826 11.0637C39.0194 11.0775 38.8144 11.0935 38.7068 11.0047C38.5935 10.9116 38.5286 10.6629 38.53 10.3248C38.5316 9.92776 38.2115 9.60505 37.8145 9.60341C37.4172 9.60178 37.0947 9.92186 37.0931 10.3189C37.0897 11.1411 37.3342 11.7526 37.8208 12.1362C38.2055 12.4381 38.6371 12.51 38.9544 12.5113C39.1971 12.5123 39.3741 12.4724 39.4137 12.4627C39.7944 12.3686 40.0232 11.9894 39.9363 11.6074Z" fill="#FFED8F"/>
<path d="M55.0618 8.23737C53.8734 8.23249 52.9028 9.1954 52.8979 10.3837C52.893 11.5721 53.8557 12.5429 55.0441 12.5478C56.2326 12.5527 57.2033 11.59 57.2081 10.4014C57.213 9.21292 56.2503 8.24225 55.0618 8.23737ZM55.05 11.1111C54.6543 11.1094 54.333 10.7854 54.3346 10.3896C54.3363 9.99382 54.6602 9.67249 55.0559 9.67412C55.4515 9.67574 55.773 9.9999 55.7714 10.3955C55.7698 10.7912 55.4456 11.1127 55.05 11.1111Z" fill="#FFED8F"/>
<path d="M26.7895 31.2029L26.774 31.2029C26.3784 31.2012 26.0629 31.5213 26.0613 31.9184C26.0596 32.3155 26.3865 32.638 26.7836 32.6397C27.1792 32.6413 27.5034 32.3214 27.505 31.9243C27.5067 31.5273 27.1851 31.2046 26.7895 31.2029Z" fill="#FFED8F"/>
<path d="M25.7861 28.1512L25.7706 28.1511C25.375 28.1495 25.0593 28.4696 25.0577 28.8667C25.056 29.2637 25.3831 29.5865 25.7802 29.5881C26.1758 29.5897 26.5 29.2698 26.5016 28.8726C26.5032 28.4753 26.1817 28.1528 25.7861 28.1512Z" fill="#FFED8F"/>
<path d="M29.8072 27.8703C28.1848 26.2347 25.3449 26.2257 23.712 27.8452C22.0241 29.5194 22.0114 32.2539 23.6856 33.9419C24.496 34.7589 25.5775 35.2124 26.7293 35.2171C27.8801 35.2219 28.9651 34.7773 29.7822 33.9669C30.5993 33.1563 31.0527 32.0762 31.0575 30.9244C31.0622 29.7726 30.6176 28.6873 29.8072 27.8703ZM28.7704 32.9469C27.6785 34.0285 25.7857 34.0208 24.7055 32.9303C23.5904 31.8058 23.5979 29.9819 24.7236 28.8654C25.2675 28.326 25.9913 28.03 26.7588 28.0332C27.5265 28.0363 28.2465 28.3381 28.7871 28.8821C29.3279 29.4273 29.6239 30.1511 29.6207 30.9187C29.6176 31.6862 29.3157 32.4061 28.7704 32.9469Z" fill="#FFED8F"/>
<path d="M66.2397 73.0214L66.2242 73.0213C65.8286 73.0197 65.5131 73.3398 65.5115 73.7369C65.5098 74.134 65.8367 74.4565 66.2338 74.4582C66.6294 74.4598 66.9534 74.1399 66.955 73.7428C66.9567 73.3458 66.6353 73.023 66.2397 73.0214Z" fill="#FFED8F"/>
<path d="M68.3132 62.8714L68.2977 62.8713C67.9021 62.8697 67.5866 63.1898 67.5849 63.5869C67.5833 63.9839 67.9102 64.3065 68.3073 64.3081C68.7029 64.3098 69.0271 63.9899 69.0287 63.5928C69.0303 63.1957 68.7088 62.873 68.3132 62.8714Z" fill="#FFED8F"/>
<path d="M53.0905 57.7323L53.0751 57.7323C52.6794 57.7307 52.3637 58.0506 52.3621 58.4477C52.3605 58.8447 52.6876 59.1675 53.0846 59.1691C53.4803 59.1707 53.8042 58.8507 53.8059 58.4536C53.8075 58.0565 53.4862 57.734 53.0905 57.7323Z" fill="#FFED8F"/>
<path d="M40.9614 43.4544L40.9459 43.4543C40.5503 43.4527 40.2346 43.7728 40.2329 44.1699C40.2313 44.567 40.5584 44.8897 40.9555 44.8913C41.3513 44.893 41.6753 44.5729 41.6769 44.1758C41.6785 43.7787 41.3572 43.456 40.9614 43.4544Z" fill="#FFED8F"/>
<path d="M30.8277 37.3178L30.8124 37.3177C30.4168 37.3161 30.1011 37.636 30.0995 38.0331C30.0978 38.4302 30.4249 38.7529 30.822 38.7546C31.2176 38.7562 31.5416 38.4361 31.5432 38.039C31.5449 37.642 31.2235 37.3194 30.8277 37.3178Z" fill="#FFED8F"/>
<path d="M34.9248 29.2059L34.9093 29.2058C34.5137 29.2042 34.198 29.5243 34.1963 29.9213C34.1947 30.3184 34.5218 30.6412 34.9189 30.6428C35.3145 30.6444 35.6386 30.3243 35.6403 29.9273C35.6419 29.5302 35.3204 29.2075 34.9248 29.2059Z" fill="#FFED8F"/>
<path d="M59.1411 69.9448L59.1257 69.9447C58.73 69.9431 58.4145 70.263 58.4129 70.6601C58.4113 71.0571 58.7382 71.3799 59.1352 71.3815C59.531 71.3831 59.855 71.0631 59.8566 70.666C59.8583 70.2689 59.5368 69.9464 59.1411 69.9448Z" fill="#FFED8F"/>
<path d="M69.719 70.4092L69.7036 70.4092C69.3079 70.4075 68.9924 70.7275 68.9908 71.1245C68.9891 71.5216 69.316 71.8443 69.7131 71.846C70.1087 71.8476 70.4329 71.5275 70.4345 71.1305C70.4362 70.7334 70.1146 70.4109 69.719 70.4092Z" fill="#FFED8F"/>
<path d="M70.2774 68.6773C68.6566 67.0444 65.8167 67.03 64.1824 68.6522C62.4945 70.3262 62.4832 73.0595 64.1574 74.7474C64.9678 75.5645 66.0493 76.018 67.2011 76.0227C68.3517 76.0275 69.4367 75.5829 70.2538 74.7725C71.9403 73.0985 71.9501 70.3638 70.2774 68.6773ZM69.2422 73.7524C68.1517 74.8352 66.2589 74.8246 65.1773 73.7357C64.0622 72.6114 64.0697 70.7873 65.194 69.6722C65.7393 69.1314 66.4616 68.8356 67.2292 68.8388C67.9969 68.8419 68.7167 69.1436 69.2575 69.6889C70.3725 70.8132 70.3665 72.6373 69.2422 73.7524Z" fill="#FFED8F"/>
<path d="M62.4297 62.1585C61.7219 60.6626 60.3663 60.657 59.3827 60.66L59.2227 60.6593C58.8257 60.6577 58.5031 60.9776 58.5015 61.3747C58.4999 61.7717 58.8198 62.0945 59.2168 62.0961L59.381 62.0968C60.5078 62.1014 60.8385 62.1533 61.1308 62.7717C61.1684 62.8533 61.1988 62.9223 61.2211 62.9799C60.3629 63.2119 59.5187 63.7473 59.5107 65.6892C59.5091 66.0862 59.8292 66.4089 60.2262 66.4106C60.6233 66.4122 60.9462 66.0921 60.9477 65.6954C60.9525 64.5224 61.2544 64.4492 61.6715 64.3472C61.9666 64.2754 62.4132 64.1663 62.634 63.7056C62.8659 63.2196 62.6733 62.6758 62.4297 62.1585Z" fill="#FFED8F"/>
<path d="M59.0883 60.6613L58.9227 60.6606C57.9546 60.6525 56.588 60.6413 55.8718 62.1341C55.6241 62.6481 55.4254 63.1916 55.6535 63.678C55.8691 64.142 56.3163 64.2533 56.6108 64.3274C57.027 64.4329 57.3283 64.5085 57.3221 65.6801C57.3204 66.0758 57.6405 66.3999 58.0376 66.4016C58.4347 66.4032 58.7572 66.0831 58.7588 65.6859C58.768 63.7467 57.9299 63.2044 57.0735 62.9639C57.0962 62.9065 57.1274 62.8378 57.1671 62.7565C57.4615 62.1405 57.8533 62.086 58.9113 62.0973L59.0824 62.098C59.4794 62.0997 59.802 61.7796 59.8036 61.3825C59.8052 60.9855 59.4853 60.6629 59.0883 60.6613Z" fill="#FFED8F"/>
<path d="M60.2321 64.9739L58.0433 64.9649C57.6462 64.9632 57.3235 65.2831 57.3219 65.6802C57.3202 66.0773 57.6403 66.4 58.0374 66.4016L60.2262 66.4106C60.6233 66.4122 60.946 66.0922 60.9476 65.6951C60.9493 65.298 60.6292 64.9755 60.2321 64.9739Z" fill="#FFED8F"/>
<path d="M38.4444 40.015C38.0587 39.9586 37.6899 40.2406 37.6378 40.6333L37.6161 40.8002C37.4811 41.8492 37.3758 42.2346 36.7238 42.4453C36.6396 42.473 36.568 42.4937 36.5075 42.5103C36.3864 41.6272 35.9621 40.7219 34.0365 40.4684C33.6424 40.4107 33.2821 40.694 33.23 41.0867C33.1778 41.4809 33.4555 41.8412 33.8482 41.8933C35.0121 42.0467 35.046 42.3555 35.0933 42.7823C35.1273 43.084 35.1787 43.5417 35.6082 43.8185C35.8027 43.944 36.0186 43.9927 36.2431 43.9937C36.542 43.9949 36.858 43.9135 37.1674 43.8138C38.7436 43.3024 38.9163 41.9617 39.041 40.9828L39.0626 40.8216C39.1148 40.4274 38.8371 40.0672 38.4444 40.015Z" fill="#FFED8F"/>
<path d="M38.023 37.3106C37.5457 36.9985 37.032 36.7354 36.519 36.8974C36.0331 37.054 35.8656 37.4813 35.7537 37.7643C35.5976 38.1636 35.4942 38.4521 34.3232 38.3C33.9348 38.2409 33.5687 38.5256 33.5166 38.9183C33.4644 39.3125 33.7421 39.6728 34.1348 39.7249C36.0674 39.9841 36.7033 39.2163 37.0476 38.397C37.1022 38.4279 37.1667 38.4661 37.2422 38.5155C37.8161 38.8869 37.8186 39.2854 37.6768 40.3315L37.655 40.4999C37.6029 40.8924 37.8808 41.2529 38.2747 41.305C38.3042 41.3093 38.3349 41.3109 38.3659 41.311C38.7223 41.3125 39.0322 41.0486 39.0797 40.6853L39.1014 40.524C39.2331 39.5465 39.414 38.2086 38.023 37.3106Z" fill="#FFED8F"/>
<path d="M34.3232 38.3003C33.9348 38.2412 33.5687 38.5258 33.5166 38.9186L33.23 41.0867C33.1778 41.4794 33.4543 41.8411 33.8482 41.8932C33.8791 41.8975 33.9099 41.8991 33.9408 41.8992C34.2958 41.9006 34.607 41.6366 34.6547 41.275L34.9415 39.1069C34.9936 38.7141 34.7172 38.3524 34.3232 38.3003Z" fill="#FFED8F"/>
<path d="M65.6582 80.3408C65.0812 79.7591 64.4871 79.4998 63.8597 79.5716C63.0078 79.6718 62.5515 80.3843 62.5021 80.4654C62.2972 80.8041 62.4047 81.2465 62.7436 81.4527C62.8598 81.5218 62.9874 81.5561 63.1136 81.5566C63.3563 81.5576 63.5951 81.4349 63.7311 81.2112C63.7325 81.2099 63.8721 81.0165 64.0292 80.9978C64.1711 80.9998 64.3978 81.11 64.6382 81.3524C64.9175 81.6343 65.3721 81.6362 65.654 81.3566C65.9358 81.0771 65.9376 80.6226 65.6582 80.3408Z" fill="#FFED8F"/>
<path d="M78.7844 67.0803C78.4469 66.8783 78.0034 66.9829 77.7969 67.3218C77.7955 67.3231 77.6559 67.5163 77.4987 67.5352C77.3652 67.5361 77.1302 67.4228 76.8897 67.1806C76.6103 66.8987 76.1557 66.8968 75.874 67.1764C75.592 67.4557 75.5902 67.9103 75.8698 68.1922C76.3825 68.7093 76.916 68.971 77.459 68.9733C77.5279 68.9736 77.598 68.9695 77.6681 68.9615C78.5202 68.8613 78.9765 68.1489 79.0257 68.0676C79.2308 67.7291 79.1231 67.2866 78.7844 67.0803Z" fill="#FFED8F"/>
<path d="M19.9992 34.3393C19.6675 34.1303 19.2251 34.2308 19.0118 34.5583C18.9765 34.6116 18.8441 34.7681 18.7022 34.783C18.5522 34.7782 18.3351 34.6679 18.0976 34.4284C17.8181 34.1466 17.3635 34.1448 17.0818 34.4242C16.7999 34.7036 16.798 35.1582 17.0776 35.44C17.5905 35.9571 18.124 36.2188 18.6656 36.2211C18.7359 36.2213 18.806 36.2173 18.8759 36.2093C19.7295 36.1075 20.1843 35.3952 20.2337 35.314C20.4371 34.9796 20.3309 34.5497 19.9992 34.3393Z" fill="#FFED8F"/>
<path d="M31.3579 21.2734C30.5475 20.4563 29.1275 20.4505 28.3104 21.2608C27.9018 21.6661 27.6751 22.2068 27.6727 22.7822C27.6703 23.3574 27.8926 23.8999 28.2979 24.3085C28.7032 24.7172 29.2439 24.9439 29.8192 24.9463C30.3946 24.9486 30.9368 24.7263 31.3454 24.321C31.754 23.9158 31.9808 23.3751 31.9831 22.7999C31.9855 22.2245 31.7632 21.682 31.3579 21.2734ZM30.3338 23.3009C30.0605 23.5721 29.5892 23.5702 29.318 23.2967C29.1825 23.1601 29.1088 22.9802 29.1096 22.7881C29.1104 22.5959 29.1856 22.4165 29.3222 22.281C29.4588 22.1455 29.6387 22.0718 29.831 22.0726C30.0234 22.0734 30.2026 22.1485 30.338 22.2851C30.4735 22.4218 30.5472 22.6018 30.5464 22.794C30.5456 22.9861 30.4704 23.1654 30.3338 23.3009Z" fill="#FFED8F"/>
<path d="M19.0084 51.194L18.9931 51.194C18.5973 51.1923 18.2818 51.5123 18.2801 51.9093C18.2785 52.3064 18.6054 52.629 19.0025 52.6306C19.3981 52.6322 19.7223 52.3123 19.7239 51.9153C19.7255 51.5182 19.4042 51.1956 19.0084 51.194Z" fill="#FFED8F"/>
<path d="M16.142 49.7453L16.1266 49.7452C15.731 49.7436 15.4154 50.0637 15.4138 50.4608C15.4122 50.8578 15.7391 51.1806 16.1361 51.1822C16.5318 51.1838 16.8559 50.8638 16.8576 50.4667C16.8592 50.0696 16.5377 49.7469 16.142 49.7453Z" fill="#FFED8F"/>
<path d="M85.5439 35.5219C85.3937 35.1564 84.9748 34.9792 84.6066 35.1292L50.2492 49.195C49.8824 49.345 49.7065 49.7653 49.8567 50.1321C49.9705 50.409 50.2365 50.5771 50.5184 50.5782C50.6097 50.5786 50.704 50.5621 50.7938 50.5247L85.1514 36.4589C85.5182 36.3089 85.6939 35.8888 85.5439 35.5219Z" fill="#FFED8F"/>
<path d="M44.1306 52.4786C43.9805 52.1118 43.5632 51.9345 43.1935 52.0861L8.81485 66.1586C8.44807 66.3087 8.27234 66.7289 8.42237 67.0959C8.53627 67.3726 8.80216 67.5407 9.08419 67.5419C9.17532 67.5422 9.2694 67.5257 9.35925 67.4884L43.7381 53.4157C44.1049 53.2656 44.2806 52.8454 44.1306 52.4786Z" fill="#FFED8F"/>
<path d="M45.7948 54.1538C45.4334 53.9979 45.0091 54.1716 44.8546 54.5385L30.4944 88.7975C30.3414 89.1631 30.5136 89.5848 30.8792 89.738C30.9689 89.7763 31.0614 89.7935 31.154 89.7939C31.436 89.7951 31.7031 89.629 31.8196 89.3532L46.1796 55.094C46.3326 54.7285 46.1604 54.3068 45.7948 54.1538Z" fill="#FFED8F"/>
<path d="M63.1619 88.9316L49.0921 54.5529C48.9421 54.1876 48.5247 54.0076 48.155 54.1605C47.7883 54.3105 47.6124 54.7307 47.7626 55.0975L61.8324 89.4763C61.9461 89.7531 62.2121 89.9214 62.4942 89.9225C62.5853 89.9229 62.6794 89.9064 62.7694 89.8688C63.1364 89.7186 63.3121 89.2984 63.1619 88.9316Z" fill="#FFED8F"/>
<path d="M43.733 49.1683L9.49626 34.8179C9.13343 34.6636 8.71048 34.8359 8.556 35.2029C8.40297 35.5684 8.57524 35.9901 8.94077 36.1431L43.1775 50.4933C43.2671 50.5314 43.3597 50.5487 43.4523 50.5491C43.7343 50.5503 44.0016 50.3844 44.1178 50.1086C44.2708 49.743 44.0985 49.3213 43.733 49.1683Z" fill="#FFED8F"/>
<path d="M85.0269 66.4716L50.7706 52.1116C50.4092 51.9584 49.9848 52.1294 49.8303 52.4963C49.6771 52.8619 49.8495 53.2835 50.2151 53.4366L84.4712 67.7968C84.5609 67.8349 84.6532 67.8521 84.746 67.8525C85.028 67.8537 85.2953 67.6878 85.4116 67.412C85.5647 67.0463 85.3924 66.6246 85.0269 66.4716Z" fill="#FFED8F"/>
<path d="M18.2653 46.8805C15.8885 46.8707 13.9471 48.7962 13.9374 51.1732C13.9276 53.5487 15.8518 55.4914 18.2287 55.5026C20.607 55.511 22.5485 53.5841 22.5579 51.2086C22.5676 48.8318 20.6422 46.8903 18.2653 46.8805ZM18.2347 54.0657C16.6506 54.0578 15.3678 52.7629 15.3743 51.179C15.3808 49.5948 16.6755 48.3107 18.2596 48.3173C19.8438 48.3238 21.1278 49.6184 21.1215 51.2026C21.115 52.7865 19.8202 54.0708 18.2347 54.0657Z" fill="#FFED8F"/>
<path d="M77.9169 51.4374L77.9015 51.4374C77.5059 51.4357 77.1903 51.7557 77.1887 52.1527C77.1871 52.5498 77.514 52.8724 77.911 52.874C78.3067 52.8756 78.6308 52.5557 78.6325 52.1587C78.6341 51.7616 78.3126 51.4391 77.9169 51.4374Z" fill="#FFED8F"/>
<path d="M70.764 44.2253L70.7485 44.2252C70.3529 44.2236 70.0372 44.5437 70.0356 44.9408C70.0339 45.3378 70.361 45.6604 70.7581 45.662C71.1537 45.6637 71.4777 45.3438 71.4793 44.9467C71.481 44.5496 71.1596 44.2269 70.764 44.2253Z" fill="#FFED8F"/>
<path d="M56.3649 51.3545L56.3495 51.3545C55.9539 51.3529 55.6383 51.6728 55.6367 52.0699C55.6351 52.4669 55.962 52.7895 56.359 52.7911C56.7547 52.7927 57.0787 52.4729 57.0803 52.0758C57.0819 51.6787 56.7606 51.3562 56.3649 51.3545Z" fill="#FFED8F"/>
<path d="M37.6911 49.8338L37.6757 49.8337C37.28 49.8321 36.9645 50.1522 36.9629 50.5493C36.9612 50.9463 37.2881 51.2691 37.6852 51.2707C38.0808 51.2723 38.405 50.9523 38.4066 50.5552C38.4083 50.1581 38.0867 49.8354 37.6911 49.8338Z" fill="#FFED8F"/>
<path d="M26.1878 52.6602L26.1724 52.6601C25.7767 52.6585 25.461 52.9786 25.4594 53.3757C25.4578 53.7728 25.7848 54.0955 26.1819 54.0971C26.5776 54.0988 26.9015 53.7787 26.9032 53.3816C26.9048 52.9846 26.5835 52.6618 26.1878 52.6602Z" fill="#FFED8F"/>
<path d="M23.3496 44.0276L23.3341 44.0276C22.9385 44.0259 22.6228 44.3461 22.6211 44.7431C22.6195 45.1402 22.9466 45.4628 23.3437 45.4644C23.7393 45.466 24.0635 45.1461 24.0651 44.7491C24.0667 44.352 23.7452 44.0293 23.3496 44.0276Z" fill="#FFED8F"/>
<path d="M69.28 55.7109L69.2645 55.7108C68.8689 55.7092 68.5532 56.0291 68.5516 56.4262C68.5499 56.8234 68.877 57.146 69.2741 57.1476C69.6697 57.1492 69.9937 56.8294 69.9953 56.4321C69.9969 56.035 69.6756 55.7125 69.28 55.7109Z" fill="#FFED8F"/>
<path d="M73.6065 51.4197L73.5911 51.4197C73.1954 51.418 72.8797 51.738 72.8781 52.135C72.8765 52.5321 73.2035 52.8547 73.6006 52.8563C73.9962 52.8579 74.3204 52.538 74.322 52.141C74.3237 51.7439 74.0021 51.4214 73.6065 51.4197Z" fill="#FFED8F"/>
<path d="M75.7332 47.118C73.3576 47.1083 71.4177 49.0337 71.408 51.4108C71.3982 53.786 73.3235 55.7276 75.7005 55.7388C78.0774 55.7485 80.0203 53.8214 80.0301 51.4435C80.037 49.0679 78.1086 47.1278 75.7332 47.118ZM75.7062 54.302C74.1221 54.2942 72.8378 52.9994 72.8443 51.4167C72.8475 50.649 73.1494 49.929 73.6946 49.3882C74.2401 48.8474 74.9623 48.5516 75.73 48.5548C77.3127 48.5613 78.597 49.856 78.593 51.4389C78.5865 53.0243 77.2916 54.3085 75.7062 54.302Z" fill="#FFED8F"/>
<path d="M67.0307 51.6074C66.2037 50.7733 66.3662 50.5089 66.5893 50.1422C66.7475 49.8833 66.9862 49.4901 66.8156 49.008C66.6367 48.5021 66.1157 48.253 65.5792 48.0586C64.0239 47.502 63.0645 48.4537 62.3656 49.1509L62.2501 49.2669C61.9681 49.5462 61.9663 50.0008 62.2459 50.2827C62.5251 50.5646 62.9797 50.5665 63.2617 50.2869L63.3813 50.1682C64.1297 49.4219 64.4519 49.1818 65.0921 49.4104C65.1777 49.4416 65.2463 49.4685 65.3037 49.4927C64.8599 50.2654 64.6426 51.2395 66.0108 52.619C66.1504 52.7598 66.334 52.8306 66.5177 52.8314C66.7014 52.8321 66.8856 52.7628 67.0266 52.6233C67.3085 52.3439 67.3103 51.8893 67.0307 51.6074Z" fill="#FFED8F"/>
<path d="M65.4754 53.1471C64.1115 51.7693 63.1357 51.9787 62.3591 52.4159C62.3355 52.3582 62.3093 52.2895 62.2787 52.2038C62.0526 51.5588 62.2953 51.2427 63.0461 50.5021L63.1686 50.3818C63.4506 50.1026 63.4524 49.648 63.1728 49.3661C62.8936 49.0842 62.439 49.0823 62.157 49.3619L62.0388 49.4779C61.3357 50.1694 60.3735 51.1169 60.9227 52.6794C61.1112 53.2176 61.3548 53.7405 61.8606 53.925C62.3339 54.0968 62.7348 53.8642 62.9964 53.7066C63.3664 53.4892 63.6322 53.3288 64.4553 54.1587C64.5949 54.2997 64.7787 54.3706 64.9622 54.3713C65.1461 54.3721 65.3303 54.3027 65.4712 54.1629C65.7531 53.8837 65.755 53.4291 65.4754 53.1471Z" fill="#FFED8F"/>
<path d="M67.0305 51.6072C66.7513 51.3255 66.2967 51.3236 66.0149 51.603L64.4595 53.1431C64.1775 53.4211 64.1757 53.8771 64.4553 54.1589C64.5949 54.2998 64.7787 54.3707 64.9622 54.3714C65.1461 54.3722 65.3303 54.3029 65.4711 54.163L67.0264 52.6232C67.3083 52.3452 67.3101 51.8891 67.0305 51.6072Z" fill="#FFED8F"/>
<path d="M34.0705 49.6284L33.9686 49.4946C33.7272 49.1807 33.277 49.1213 32.9603 49.36C32.6449 49.6013 32.5856 50.0528 32.8257 50.3682L32.9317 50.5047C33.5752 51.3394 33.7715 51.6868 33.4604 52.2958C33.4194 52.3758 33.3841 52.4402 33.353 52.4934C32.6425 51.9558 31.7009 51.6193 30.1638 52.7987C29.8486 53.0401 29.789 53.4917 30.0306 53.8055C30.1715 53.99 30.383 54.0863 30.5976 54.0872C30.7519 54.0878 30.9065 54.0392 31.0374 53.939C31.9666 53.2244 32.2099 53.4192 32.5469 53.6871C32.7847 53.8761 33.1383 54.1681 33.6426 54.0563C34.1678 53.9418 34.4813 53.4578 34.7401 52.9496C35.4941 51.4764 34.6705 50.4081 34.0705 49.6284Z" fill="#FFED8F"/>
<path d="M33.8847 49.386L33.7842 49.2551C33.1854 48.471 32.3648 47.3929 30.7484 47.7454C30.1894 47.8639 29.6399 48.0384 29.3939 48.5173C29.1605 48.9708 29.3441 49.3925 29.4664 49.6723C29.6388 50.066 29.7626 50.35 28.8335 51.063C28.5183 51.3044 28.459 51.7561 28.7003 52.07C28.8414 52.2545 29.0529 52.3506 29.2676 52.3515C29.422 52.3521 29.5764 52.3035 29.7073 52.2032C31.2456 51.0224 31.1629 50.0273 30.828 49.2023C30.8872 49.1871 30.9603 49.1691 31.0486 49.1498C31.7184 49.0107 32.0007 49.2871 32.6413 50.126L32.7447 50.2625C32.9861 50.5764 33.4348 50.6343 33.7529 50.3944C34.0669 50.1516 34.1262 49.7014 33.8847 49.386Z" fill="#FFED8F"/>
<path d="M31.1705 52.9321L29.8405 51.1965C29.5977 50.8783 29.1462 50.8218 28.8337 51.0632C28.5185 51.3045 28.4591 51.7547 28.7005 52.0701L30.0306 53.8055C30.1714 53.99 30.383 54.0863 30.5976 54.0872C30.7518 54.0878 30.9064 54.0392 31.0373 53.9389C31.3527 53.6975 31.4121 53.2473 31.1705 52.9321Z" fill="#FFED8F"/>
<path d="M80.716 58.6315C79.8953 58.6282 79.2838 58.8726 78.9016 59.3593C78.3686 60.0333 78.5503 60.8591 78.5724 60.9505C78.6523 61.2777 78.9448 61.4978 79.2676 61.4991C79.3235 61.4994 79.3825 61.4926 79.4401 61.4788C79.8266 61.3851 80.0624 60.996 79.9685 60.611C79.9686 60.6081 79.9316 60.3735 80.029 60.2492C80.1206 60.1333 80.3693 60.0669 80.7101 60.0683C81.1072 60.0699 81.4299 59.75 81.4315 59.3529C81.4332 58.9557 81.1131 58.6332 80.716 58.6315Z" fill="#FFED8F"/>
<path d="M81.4906 40.5017C81.3969 40.1168 81.0105 39.8796 80.6228 39.9735C80.2365 40.0673 80.0006 40.4564 80.0945 40.8413C80.0945 40.8442 80.1315 41.0785 80.0341 41.2031C79.9423 41.319 79.6938 41.3854 79.353 41.384C78.9557 41.3824 78.6332 41.7024 78.6315 42.0995C78.6299 42.4968 78.9498 42.8193 79.347 42.8209C80.168 42.8243 80.7791 42.5798 81.1614 42.093C81.6945 41.4188 81.5127 40.5929 81.4906 40.5017Z" fill="#FFED8F"/>
<path d="M16.7583 58.9132C16.6644 58.5325 16.2905 58.3093 15.903 58.3906C15.521 58.4773 15.2809 58.8608 15.3593 59.2444C15.3731 59.3061 15.3892 59.5096 15.3003 59.6202C15.2072 59.7334 14.9587 59.7983 14.6204 59.797C14.2234 59.7953 13.9008 60.1152 13.8992 60.5123C13.8976 60.9094 14.2175 61.2321 14.6145 61.2337C15.4367 61.2371 16.0482 60.9926 16.4318 60.5058C16.9636 59.8305 16.7804 59.0047 16.7583 58.9132Z" fill="#FFED8F"/>
<path d="M16.2197 41.7576C15.8146 41.3476 15.2738 41.1208 14.6972 41.1185C13.5088 41.1136 12.5381 42.0763 12.5333 43.2648C12.5284 44.4532 13.4911 45.4238 14.6794 45.4287C15.2561 45.4311 15.7986 45.2088 16.2072 44.8039C16.6159 44.3972 16.8412 43.8579 16.8421 43.2842C16.8459 42.7088 16.625 42.1663 16.2197 41.7576ZM15.1942 43.7836C14.7814 44.1987 13.9676 43.8587 13.97 43.2707C13.9716 42.8749 14.2956 42.5536 14.6913 42.5552C14.8834 42.556 15.0629 42.6312 15.1984 42.7678C15.3324 42.9044 15.4061 43.0843 15.4053 43.2781C15.4045 43.4688 15.3294 43.6495 15.1942 43.7836Z" fill="#FFED8F"/>
<path d="M27.6425 70.8313L27.627 70.8313C27.2314 70.8297 26.9159 71.1498 26.9142 71.5468C26.9126 71.9439 27.2395 72.2665 27.6366 72.2681C28.0322 72.2697 28.3564 71.9498 28.358 71.5528C28.3596 71.1557 28.0381 70.833 27.6425 70.8313Z" fill="#FFED8F"/>
<path d="M24.5908 71.8332L24.5754 71.8331C24.1797 71.8315 23.864 72.1514 23.8624 72.5487C23.8608 72.9457 24.1879 73.2683 24.5849 73.2699C24.9806 73.2716 25.3045 72.9517 25.3064 72.5546C25.308 72.1573 24.9865 71.8348 24.5908 71.8332Z" fill="#FFED8F"/>
<path d="M29.6403 68.509C28.0194 66.8748 25.1795 66.8644 23.5452 68.4854C22.7281 69.2958 22.2746 70.3773 22.2699 71.5279C22.2652 72.6783 22.7097 73.7621 23.5201 74.5791C24.3319 75.3977 25.412 75.8497 26.5639 75.8544C27.7146 75.8591 28.7982 75.416 29.6153 74.6056C31.3031 72.9315 31.3143 70.1969 29.6403 68.509ZM28.6035 73.5857C27.5117 74.6685 25.6202 74.6564 24.5401 73.5675C23.9993 73.0221 23.7033 72.2999 23.7065 71.5338C23.7096 70.7661 24.0115 70.0461 24.5568 69.5053C25.102 68.9645 25.8244 68.6687 26.5919 68.6719C27.3597 68.675 28.0796 68.9767 28.6202 69.5207C29.7367 70.6465 29.7292 72.4691 28.6035 73.5857Z" fill="#FFED8F"/>
<path d="M68.0242 31.3752L68.0088 31.3751C67.6132 31.3735 67.2976 31.6936 67.296 32.0907C67.2944 32.4877 67.6213 32.8103 68.0183 32.8119C68.4142 32.8136 68.7383 32.4937 68.7398 32.0966C68.7414 31.6995 68.4199 31.3768 68.0242 31.3752Z" fill="#FFED8F"/>
<path d="M59.3109 29.3061L59.2954 29.306C58.8998 29.3044 58.5843 29.6245 58.5826 30.0216C58.581 30.4186 58.9079 30.7414 59.305 30.743C59.7006 30.7446 60.0248 30.4246 60.0264 30.0275C60.028 29.6304 59.7065 29.3077 59.3109 29.3061Z" fill="#FFED8F"/>
<path d="M54.1705 44.5289L54.155 44.5288C53.7594 44.5272 53.4437 44.8473 53.4421 45.2443C53.4404 45.6414 53.7675 45.9642 54.1646 45.9658C54.5602 45.9674 54.8842 45.6473 54.8858 45.2503C54.8875 44.8532 54.5661 44.5305 54.1705 44.5289Z" fill="#FFED8F"/>
<path d="M39.8913 56.6595L39.8759 56.6594C39.4802 56.6578 39.1645 56.9777 39.1629 57.3748C39.1613 57.7719 39.4883 58.0946 39.8854 58.0962C40.281 58.0979 40.6052 57.7778 40.6068 57.3807C40.6085 56.9836 40.2869 56.6611 39.8913 56.6595Z" fill="#FFED8F"/>
<path d="M33.7559 66.7913L33.7404 66.7912C33.3448 66.7896 33.0291 67.1097 33.0274 67.5068C33.0258 67.9039 33.3529 68.2266 33.75 68.2282C34.1456 68.2299 34.4698 67.9098 34.4714 67.5127C34.473 67.1157 34.1515 66.7929 33.7559 66.7913Z" fill="#FFED8F"/>
<path d="M25.6442 62.6933L25.6287 62.6932C25.2331 62.6916 24.9174 63.0117 24.9158 63.4088C24.9141 63.8058 25.2412 64.1284 25.6383 64.13C26.0339 64.1317 26.3581 63.8118 26.3597 63.4147C26.3613 63.0176 26.0398 62.6949 25.6442 62.6933Z" fill="#FFED8F"/>
<path d="M66.3845 38.4767L66.369 38.4767C65.9734 38.475 65.6579 38.7951 65.6562 39.1922C65.6546 39.5893 65.9815 39.912 66.3786 39.9137C66.7742 39.9153 67.0982 39.5952 67.0998 39.1982C67.1014 38.8009 66.7801 38.4784 66.3845 38.4767Z" fill="#FFED8F"/>
<path d="M65.4046 29.3311L65.3892 29.331C64.9935 29.3294 64.6778 29.6495 64.6762 30.0466C64.6746 30.4437 65.0016 30.7664 65.3987 30.768C65.7945 30.7697 66.1185 30.4496 66.1201 30.0525C66.1218 29.6554 65.8002 29.3327 65.4046 29.3311Z" fill="#FFED8F"/>
<path d="M70.4458 28.0358C68.8221 26.4031 65.9851 26.3942 64.3508 28.0137C63.5337 28.8243 63.0817 29.9042 63.0755 31.0562C63.0708 32.208 63.5153 33.2932 64.3257 34.1103C65.1361 34.9274 66.2162 35.3809 67.3666 35.3856C68.5186 35.3903 69.6022 34.9472 70.4222 34.1354C72.1099 32.4598 72.1211 29.7251 70.4458 28.0358ZM69.4106 33.1154C68.3186 34.1956 66.4287 34.1905 65.3457 33.0987C64.8049 32.5535 64.5089 31.8311 64.5121 31.0621C64.5152 30.2945 64.8171 29.5746 65.3624 29.0338C65.9076 28.4945 66.63 28.1985 67.3975 28.2016C68.1651 28.2048 68.8865 28.5051 69.4273 29.0491C70.5436 30.1748 70.5348 31.9989 69.4106 33.1154Z" fill="#FFED8F"/>
<path d="M61.37 37.3449C60.1957 37.34 60.1225 37.0381 60.0205 36.621C59.9488 36.3259 59.8411 35.8793 59.3804 35.6585C58.8944 35.425 58.3492 35.6178 57.8332 35.8612C56.3358 36.5707 56.3346 37.9204 56.3346 38.9069L56.334 39.0698C56.3323 39.4668 56.6524 39.7894 57.0495 39.791C57.4465 39.7926 57.7693 39.4727 57.7711 39.0757L57.7718 38.9072C57.772 37.8508 57.8268 37.4538 58.4467 37.1617C58.5269 37.1227 58.5958 37.0935 58.6533 37.07C58.8854 37.9295 59.4208 38.7736 61.3641 38.7816C61.7612 38.7832 62.0839 38.4633 62.0855 38.0663C62.0872 37.6692 61.7671 37.3465 61.37 37.3449Z" fill="#FFED8F"/>
<path d="M61.3581 39.5336C61.3567 39.5336 61.3554 39.5336 61.3525 39.5336C59.4192 39.5257 58.8782 40.3624 58.6389 41.2188C58.5817 41.1947 58.5129 41.1651 58.4317 41.1254C57.8154 40.8309 57.764 40.4351 57.7725 39.3785L57.7732 39.2074C57.7748 38.8103 57.4548 38.4876 57.0577 38.486C56.6606 38.4844 56.3379 38.8044 56.3363 39.2015L56.3356 39.3671C56.3272 40.3535 56.3161 41.7047 57.8103 42.4208C58.1619 42.5905 58.5289 42.738 58.8811 42.7395C59.0423 42.7401 59.1997 42.7098 59.353 42.6389C59.8157 42.4219 59.9282 41.976 60.0024 41.6803C60.1064 41.2655 60.182 40.9656 61.3452 40.9704C61.3481 40.9704 61.3493 40.9704 61.3522 40.9704C61.7493 40.972 62.072 40.6519 62.0736 40.2549C62.0753 39.8592 61.7552 39.5353 61.3581 39.5336Z" fill="#FFED8F"/>
<path d="M61.3715 37.3449C61.37 37.3449 61.37 37.3449 61.37 37.3449C60.9744 37.3433 60.6504 37.6633 60.6488 38.059L60.6369 40.2478C60.6353 40.6448 60.9552 40.969 61.3508 40.9706C61.3523 40.9706 61.3523 40.9706 61.3523 40.9706C61.7479 40.9723 62.072 40.6522 62.0737 40.2566L62.0855 38.0677C62.0872 37.6707 61.7671 37.3465 61.3715 37.3449Z" fill="#FFED8F"/>
<path d="M39.4856 61.1252C38.9758 59.5503 37.6379 59.3778 36.6618 59.2503L36.4978 59.2286C36.0939 59.1737 35.7435 59.4514 35.6899 59.8454C35.6378 60.2394 35.9141 60.5997 36.3068 60.6533L36.4764 60.675C37.5225 60.8114 37.9066 60.9167 38.1185 61.5686C38.1462 61.653 38.1657 61.7245 38.1822 61.785C37.3005 61.9061 36.3966 62.3318 36.1431 64.2559C36.091 64.6501 36.3687 65.0104 36.7614 65.0625C36.7921 65.0668 36.8231 65.0683 36.854 65.0685C37.2104 65.0699 37.5201 64.8059 37.568 64.4442C37.7214 63.2804 38.0302 63.2465 38.457 63.1977C38.7589 63.1639 39.215 63.1124 39.4918 62.6841C39.7829 62.2321 39.6602 61.6677 39.4856 61.1252Z" fill="#FFED8F"/>
<path d="M36.3618 59.2126L36.206 59.1923C35.2244 59.0578 33.8852 58.8769 32.9815 60.2693C32.6721 60.748 32.4063 61.2603 32.5712 61.7732C32.7278 62.2592 33.1563 62.4267 33.4393 62.5386C33.8399 62.6945 34.1285 62.808 33.9751 63.9691C33.9229 64.3633 34.2006 64.7236 34.5933 64.7757C34.6242 64.78 34.655 64.7815 34.6859 64.7817C35.0409 64.7831 35.352 64.5193 35.3999 64.1576C35.6534 62.2337 34.8899 61.5892 34.0691 61.2434C34.1003 61.1903 34.1384 61.1259 34.1878 61.0517C34.5607 60.4737 34.9619 60.4739 36.0123 60.6157L36.1735 60.6374C36.5606 60.6924 36.9279 60.4133 36.98 60.0192C37.0322 59.6264 36.7558 59.2647 36.3618 59.2126Z" fill="#FFED8F"/>
<path d="M36.9498 63.6377L34.7817 63.3509C34.3933 63.2976 34.0272 63.5752 33.9751 63.9692C33.923 64.3619 34.1994 64.7237 34.5934 64.7758L36.7615 65.0626C36.7922 65.0669 36.8231 65.0684 36.854 65.0685C37.209 65.07 37.5202 64.806 37.5681 64.4443C37.6202 64.0516 37.3438 63.6899 36.9498 63.6377Z" fill="#FFED8F"/>
<path d="M76.8944 34.5686C76.8413 34.5334 76.6846 34.401 76.6712 34.2591C76.6563 34.1116 76.785 33.8918 77.0245 33.6542C77.3064 33.375 77.3083 32.9204 77.0287 32.6385C76.7493 32.3567 76.2947 32.3548 76.0129 32.6343C75.431 33.2114 75.1718 33.8165 75.2436 34.4314C75.344 35.2836 76.0564 35.741 76.136 35.7891C76.2508 35.8599 76.377 35.8926 76.5018 35.8931C76.7403 35.894 76.9723 35.7742 77.1107 35.5573C77.3211 35.227 77.2205 34.7846 76.8944 34.5686Z" fill="#FFED8F"/>
<path d="M64.6351 20.6244C64.5347 19.7709 63.8224 19.3146 63.7412 19.2667C63.4082 19.0633 62.9629 19.1653 62.7553 19.5067C62.549 19.8456 62.6552 20.2864 62.9954 20.4928C62.9966 20.4942 63.1898 20.6354 63.2088 20.7926C63.2251 20.94 63.0963 21.1611 62.8539 21.4016C62.5722 21.681 62.5703 22.1356 62.8498 22.4173C62.9896 22.5583 63.1732 22.6292 63.3569 22.6299C63.5408 22.6307 63.7248 22.5613 63.8657 22.4215C64.4491 21.8444 64.7068 21.2393 64.6351 20.6244Z" fill="#FFED8F"/>
<path d="M31.8826 79.4139C31.7793 78.5601 31.067 78.1069 30.9858 78.0588C30.6471 77.8498 30.2048 77.9618 29.9999 78.3017C29.7938 78.6417 29.9027 79.0827 30.2428 79.2876C30.2457 79.2889 30.4373 79.4288 30.455 79.5845C30.4727 79.7304 30.3442 79.9529 30.1003 80.1948C29.8186 80.474 29.8167 80.9286 30.0962 81.2105C30.236 81.3513 30.4196 81.4224 30.6033 81.4231C30.787 81.4239 30.9711 81.3543 31.1117 81.2151C31.6965 80.6352 31.9557 80.0287 31.8826 79.4139Z" fill="#FFED8F"/>
<path d="M19.9944 66.9484C19.1896 66.1297 17.7655 66.1226 16.9484 66.933C16.1044 67.7715 16.1002 69.1394 16.9359 69.9819C17.3412 70.3906 17.8816 70.6173 18.457 70.6196C19.0324 70.622 19.5747 70.3997 19.9834 69.9932C20.3934 69.5879 20.6187 69.0472 20.6211 68.4718C20.622 67.8952 20.3983 67.3541 19.9944 66.9484ZM18.9716 68.9731C18.6969 69.2441 18.2241 69.2421 17.9558 68.9703C17.6764 68.6886 17.6795 68.2325 17.96 67.9531C18.0966 67.8174 18.2765 67.7439 18.4674 67.7447C18.6583 67.7455 18.8376 67.8205 18.9743 67.9601C19.11 68.0966 19.1849 68.2767 19.1842 68.4674C19.1834 68.6581 19.1082 68.8374 18.9716 68.9731Z" fill="#FFED8F"/>
</g>
<defs>
<clipPath id="clip0">
<rect width="92" height="92" fill="white" transform="translate(1.18933 0.811401) rotate(0.235331)"/>
</clipPath>
</defs>
</svg>
