<svg width="150" height="150" viewBox="0 0 150 150" fill="none" xmlns="http://www.w3.org/2000/svg">
<g clip-path="url(#clip0)">
<path d="M144.633 52.3471H124.386C125.606 47.071 127.141 35.71 120.754 26.7694C118.828 24.0735 116.136 22.573 112.969 22.4294C108.022 22.2032 101.832 25.2352 94.5618 31.4344C90.554 34.8519 87.361 38.2632 86.0221 39.7468H74.5151C72.8798 37.9336 68.4829 33.249 63.2288 29.2046C62.2649 28.4628 60.8833 28.6427 60.1412 29.6063C59.3997 30.5698 59.5796 31.9521 60.5429 32.6939C65.5541 36.5514 69.8593 41.1615 71.3232 42.7846V52.3471H40.6913C39.6706 48.4025 37.5891 37.4159 43.3661 29.3288C44.6965 27.4667 47.1943 25.3292 53.499 28.2548C54.6012 28.7663 55.9108 28.2873 56.4226 27.1843C56.9344 26.0813 56.4551 24.7726 55.3521 24.2607C46.8 20.2922 42.1652 23.4349 39.7831 26.7697C33.3964 35.7103 34.9313 47.0713 36.1512 52.3474H15.9035C12.9445 52.3474 10.5369 54.7547 10.5369 57.714V67.8261C10.5369 70.7851 12.9442 73.1924 15.9035 73.1924H17.9484V82.5217L0.644829 99.8247C-0.215034 100.685 -0.215034 102.079 0.644829 102.938L18.0533 120.347C18.6721 124.479 22.2062 127.594 26.4797 127.594H41.8647C43.0805 127.594 44.0663 126.608 44.0663 125.392C44.0663 124.176 43.0805 123.19 41.8647 123.19H26.4797C24.5602 123.19 22.9506 121.889 22.4924 120.1L39.6548 102.938C40.5147 102.078 40.5147 100.684 39.6548 99.8244L32.8515 93.0211C42.2751 86.6763 48.7307 79.3236 52.9685 73.1918H69.7588V123.19H50.671C49.4552 123.19 48.4693 124.176 48.4693 125.392C48.4693 126.608 49.4549 127.594 50.671 127.594H134.058C138.762 127.594 142.589 123.767 142.589 119.063V73.1918H144.634C147.593 73.1918 150 70.7845 150 67.8255V57.7134C150 54.7544 147.593 52.3471 144.633 52.3471ZM112.77 26.828C114.614 26.9115 116.012 27.7064 117.171 29.3291C122.927 37.386 120.857 48.397 119.842 52.3471H89.2137V42.7764C93.7307 37.6963 105.305 26.497 112.77 26.828ZM71.3593 68.7888V56.7501H89.1777V68.7888H71.3593ZM66.9563 56.7501V68.7888H55.7821C58.9321 63.4371 60.6067 59.0268 61.3556 56.7501H66.9563ZM75.7263 44.1498H84.8104V52.3468H75.7263V44.1498ZM14.9402 67.8255V57.7134C14.9402 57.1822 15.3724 56.7501 15.9035 56.7501H56.6871C55.8316 59.0713 54.2974 62.6833 51.7989 66.8751C51.4327 67.4898 51.0375 68.129 50.6136 68.7888H15.9035C15.3724 68.7888 14.9402 68.3566 14.9402 67.8255ZM20.1498 116.216L5.31504 101.381L20.1498 86.5462L34.9846 101.381L20.1498 116.216ZM29.6742 89.8441L22.3515 82.5214V73.1921H47.5333C43.4731 78.5458 37.6834 84.5871 29.6742 89.8441ZM74.1618 73.1918H86.3751V123.19H74.1618V73.1918ZM145.597 67.8255C145.597 68.3566 145.165 68.7888 144.634 68.7888H125.519C124.303 68.7888 123.317 69.7743 123.317 70.9904C123.317 72.2063 124.303 73.1921 125.519 73.1921H138.185V119.063C138.185 121.339 136.334 123.191 134.057 123.191H90.7784V73.1918H116.713C117.928 73.1918 118.914 72.206 118.914 70.9901C118.914 69.7743 117.929 68.7885 116.713 68.7885H93.5807V56.7498H144.633C145.165 56.7498 145.597 57.1819 145.597 57.7131V67.8255H145.597Z" fill="white"/>
<path d="M18.1002 93.9867C17.2403 94.8466 17.2403 96.2405 18.1002 97.1001L24.431 103.431C24.8608 103.861 25.4241 104.076 25.9878 104.076C26.5512 104.076 27.1146 103.861 27.5446 103.431C28.4045 102.571 28.4045 101.177 27.5446 100.317L21.2139 93.9867C20.354 93.1271 18.9601 93.1271 18.1002 93.9867Z" fill="white"/>
<path d="M15.8687 99.3319C15.0091 98.4724 13.6148 98.4724 12.7553 99.3319C11.8954 100.192 11.8954 101.586 12.7553 102.445L19.086 108.776C19.5158 109.206 20.0792 109.421 20.6429 109.421C21.2063 109.421 21.7696 109.206 22.1997 108.776C23.0596 107.917 23.0596 106.522 22.1997 105.663L15.8687 99.3319Z" fill="white"/>
</g>
<defs>
<clipPath id="clip0">
<rect width="150" height="150" fill="white"/>
</clipPath>
</defs>
</svg>
