<svg width="138" height="138" viewBox="0 0 138 138" fill="none" xmlns="http://www.w3.org/2000/svg">
<path d="M131.531 112.125H127.163C128.59 110.27 129.367 107.997 129.375 105.656V45.2812C129.372 42.4229 128.235 39.6827 126.213 37.6615C124.192 35.6404 121.452 34.5034 118.594 34.5H112.125V10.7812C112.125 9.06563 111.443 7.42028 110.23 6.20715C109.017 4.99403 107.372 4.3125 105.656 4.3125H32.3438C30.6281 4.3125 28.9828 4.99403 27.7697 6.20715C26.5565 7.42028 25.875 9.06563 25.875 10.7812V34.5H19.4062C16.5479 34.5034 13.8077 35.6404 11.7865 37.6615C9.7654 39.6827 8.62842 42.4229 8.625 45.2812V105.656C8.63293 107.997 9.41029 110.27 10.8373 112.125H6.46875C5.89688 112.125 5.34843 112.352 4.94405 112.757C4.53968 113.161 4.3125 113.709 4.3125 114.281V122.906C4.31592 125.765 5.4529 128.505 7.47404 130.526C9.49517 132.547 12.2354 133.684 15.0938 133.688H122.906C125.765 133.684 128.505 132.547 130.526 130.526C132.547 128.505 133.684 125.765 133.688 122.906V114.281C133.688 113.709 133.46 113.161 133.056 112.757C132.652 112.352 132.103 112.125 131.531 112.125ZM21.5625 103.5V47.4375H25.875V103.5H21.5625ZM30.1875 36.6562V21.5625H107.812V103.5H30.1875V36.6562ZM112.125 47.4375H116.438V103.5H112.125V47.4375ZM30.1875 10.7812C30.1875 10.2094 30.4147 9.66093 30.8191 9.25655C31.2234 8.85218 31.7719 8.625 32.3438 8.625H105.656C106.228 8.625 106.777 8.85218 107.181 9.25655C107.585 9.66093 107.812 10.2094 107.812 10.7812V17.25H30.1875V10.7812ZM12.9375 105.656V45.2812C12.9375 43.5656 13.619 41.9203 14.8322 40.7072C16.0453 39.494 17.6906 38.8125 19.4062 38.8125H25.875V43.125H19.4062C18.8344 43.125 18.2859 43.3522 17.8816 43.7565C17.4772 44.1609 17.25 44.7094 17.25 45.2812V105.656C17.25 106.228 17.4772 106.777 17.8816 107.181C18.2859 107.585 18.8344 107.812 19.4062 107.812H118.594C119.166 107.812 119.714 107.585 120.118 107.181C120.523 106.777 120.75 106.228 120.75 105.656V45.2812C120.75 44.7094 120.523 44.1609 120.118 43.7565C119.714 43.3522 119.166 43.125 118.594 43.125H112.125V38.8125H118.594C120.309 38.8125 121.955 39.494 123.168 40.7072C124.381 41.9203 125.062 43.5656 125.062 45.2812V105.656C125.062 107.372 124.381 109.017 123.168 110.23C121.955 111.443 120.309 112.125 118.594 112.125H19.4062C17.6906 112.125 16.0453 111.443 14.8322 110.23C13.619 109.017 12.9375 107.372 12.9375 105.656ZM60.375 116.438H77.625V118.594C77.625 119.166 77.3978 119.714 76.9935 120.118C76.5891 120.523 76.0406 120.75 75.4688 120.75H62.5312C61.9594 120.75 61.4109 120.523 61.0065 120.118C60.6022 119.714 60.375 119.166 60.375 118.594V116.438ZM129.375 122.906C129.375 124.622 128.693 126.267 127.48 127.48C126.267 128.693 124.622 129.375 122.906 129.375H15.0938C13.3781 129.375 11.7328 128.693 10.5197 127.48C9.30653 126.267 8.625 124.622 8.625 122.906V116.438H56.0625V118.594C56.0625 120.309 56.744 121.955 57.9572 123.168C59.1703 124.381 60.8156 125.062 62.5312 125.062H75.4688C77.1844 125.062 78.8297 124.381 80.0428 123.168C81.256 121.955 81.9375 120.309 81.9375 118.594V116.438H129.375V122.906Z" fill="white"/>
<path d="M38.8125 10.7812H34.5V15.0938H38.8125V10.7812Z" fill="white"/>
<path d="M47.4375 10.7812H43.125V15.0938H47.4375V10.7812Z" fill="white"/>
<path d="M56.0625 10.7812H51.75V15.0938H56.0625V10.7812Z" fill="white"/>
<path d="M101.678 38.8125H93.1069L90.4568 30.6597C90.3151 30.2283 90.0407 29.8527 89.6729 29.5864C89.305 29.3201 88.8625 29.1768 88.4084 29.1768C87.9543 29.1768 87.5118 29.3201 87.144 29.5864C86.7761 29.8527 86.5018 30.2283 86.36 30.6597L83.7056 38.8125H75.1345C74.6792 38.8124 74.2354 38.9565 73.867 39.2241C73.4985 39.4917 73.2243 39.8691 73.0835 40.3022C72.9427 40.7353 72.9427 41.2018 73.0834 41.6349C73.2241 42.068 73.4983 42.4455 73.8667 42.7132L80.8012 47.7523L78.1511 55.9051C78.0103 56.3382 78.0103 56.8048 78.151 57.2379C78.2918 57.671 78.566 58.0485 78.9345 58.3162C79.3029 58.5838 79.7467 58.728 80.2021 58.7279C80.6575 58.7278 81.1012 58.5836 81.4696 58.3158L88.4062 53.2766L95.3429 58.3158C95.7113 58.5836 96.155 58.7278 96.6104 58.7279C97.0658 58.728 97.5096 58.5838 97.878 58.3162C98.2465 58.0485 98.5207 57.671 98.6615 57.2379C98.8022 56.8048 98.8022 56.3382 98.6614 55.9051L96.0113 47.7523L102.946 42.7132C103.314 42.4455 103.588 42.068 103.729 41.6349C103.87 41.2018 103.87 40.7353 103.729 40.3022C103.588 39.8691 103.314 39.4917 102.946 39.2241C102.577 38.9565 102.133 38.8124 101.678 38.8125ZM91.425 47.5949L92.5031 50.9263L89.6698 48.8671C89.3013 48.5992 88.8575 48.455 88.4019 48.455C87.9464 48.455 87.5025 48.5992 87.1341 48.8671L84.3008 50.9263L85.3789 47.5949C85.5194 47.1617 85.5192 46.6951 85.3782 46.262C85.2372 45.829 84.9627 45.4517 84.594 45.1842L81.7693 43.125H85.2732C85.7286 43.125 86.1722 42.9808 86.5406 42.7131C86.9089 42.4455 87.1831 42.0681 87.3238 41.635L88.4019 38.3036L89.4801 41.635C89.6208 42.0681 89.8949 42.4455 90.2633 42.7131C90.6317 42.9808 91.0753 43.125 91.5307 43.125H95.0346L92.2012 45.1842C91.8341 45.4528 91.5613 45.8306 91.4219 46.2636C91.2825 46.6966 91.2836 47.1626 91.425 47.5949Z" fill="white"/>
<path d="M80.8594 66.8438H73.3125V60.375C73.3125 58.6594 72.631 57.014 71.4179 55.8009C70.2047 54.5878 68.5594 53.9062 66.8438 53.9062H62.5313C61.9594 53.9062 61.4109 54.1334 61.0066 54.5378C60.6022 54.9422 60.375 55.4906 60.375 56.0625V62.5312C60.375 64.2469 59.6935 65.8922 58.4804 67.1053C57.2672 68.3185 55.6219 69 53.9063 69H51.75V66.8438C51.75 66.2719 51.5228 65.7234 51.1185 65.319C50.7141 64.9147 50.1656 64.6875 49.5938 64.6875H36.6563C36.0844 64.6875 35.5359 64.9147 35.1315 65.319C34.7272 65.7234 34.5 66.2719 34.5 66.8438V97.0312C34.5 97.6031 34.7272 98.1516 35.1315 98.556C35.5359 98.9603 36.0844 99.1875 36.6563 99.1875H49.5938C50.1656 99.1875 50.7141 98.9603 51.1185 98.556C51.5228 98.1516 51.75 97.6031 51.75 97.0312V94.875H52.8885C53.222 94.8728 53.5516 94.9465 53.8523 95.0906L56.345 96.3391C57.2424 96.7902 58.2321 97.0271 59.2365 97.0312H80.8594C81.8605 97.0312 82.8418 96.7525 83.6934 96.2262C84.545 95.6999 85.2332 94.9468 85.6809 94.0514C86.1286 93.156 86.3181 92.1536 86.2282 91.1565C86.1383 90.1595 85.7725 89.2071 85.1719 88.4062C85.8717 87.4732 86.25 86.3382 86.25 85.1719C86.25 84.0055 85.8717 82.8706 85.1719 81.9375C85.8717 81.0044 86.25 79.8695 86.25 78.7031C86.25 77.5368 85.8717 76.4018 85.1719 75.4688C85.7725 74.6679 86.1383 73.7155 86.2282 72.7185C86.3181 71.7214 86.1286 70.719 85.6809 69.8236C85.2332 68.9282 84.545 68.1751 83.6934 67.6488C82.8418 67.1225 81.8605 66.8438 80.8594 66.8438ZM47.4375 94.875H38.8125V69H47.4375V94.875ZM80.8594 77.625C81.1453 77.625 81.4195 77.7386 81.6217 77.9408C81.8239 78.143 81.9375 78.4172 81.9375 78.7031C81.9375 78.9891 81.8239 79.2633 81.6217 79.4655C81.4195 79.6677 81.1453 79.7812 80.8594 79.7812C80.2875 79.7812 79.7391 80.0084 79.3347 80.4128C78.9303 80.8172 78.7031 81.3656 78.7031 81.9375C78.7031 82.5094 78.9303 83.0578 79.3347 83.4622C79.7391 83.8666 80.2875 84.0938 80.8594 84.0938C81.1453 84.0938 81.4195 84.2073 81.6217 84.4095C81.8239 84.6117 81.9375 84.8859 81.9375 85.1719C81.9375 85.4578 81.8239 85.732 81.6217 85.9342C81.4195 86.1364 81.1453 86.25 80.8594 86.25C80.2875 86.25 79.7391 86.4772 79.3347 86.8815C78.9303 87.2859 78.7031 87.8344 78.7031 88.4062C78.7031 88.9781 78.9303 89.5266 79.3347 89.931C79.7391 90.3353 80.2875 90.5625 80.8594 90.5625C81.1453 90.5625 81.4195 90.6761 81.6217 90.8783C81.8239 91.0805 81.9375 91.3547 81.9375 91.6406C81.9375 91.9266 81.8239 92.2008 81.6217 92.403C81.4195 92.6052 81.1453 92.7188 80.8594 92.7188H59.2365C58.903 92.721 58.5734 92.6472 58.2727 92.5031L55.78 91.2547C54.8826 90.8036 53.8929 90.5667 52.8885 90.5625H51.75V73.3125H53.9063C56.7646 73.3091 59.5048 72.1721 61.526 70.151C63.5471 68.1298 64.6841 65.3896 64.6875 62.5312V58.2188H66.8438C67.4156 58.2188 67.9641 58.4459 68.3685 58.8503C68.7728 59.2547 69 59.8031 69 60.375V69C69 69.5719 69.2272 70.1203 69.6316 70.5247C70.0359 70.9291 70.5844 71.1562 71.1563 71.1562H80.8594C81.1453 71.1562 81.4195 71.2698 81.6217 71.472C81.8239 71.6742 81.9375 71.9484 81.9375 72.2344C81.9375 72.5203 81.8239 72.7945 81.6217 72.9967C81.4195 73.1989 81.1453 73.3125 80.8594 73.3125C80.2875 73.3125 79.7391 73.5397 79.3347 73.944C78.9303 74.3484 78.7031 74.8969 78.7031 75.4688C78.7031 76.0406 78.9303 76.5891 79.3347 76.9935C79.7391 77.3978 80.2875 77.625 80.8594 77.625Z" fill="white"/>
<path d="M40.9688 34.5H66.8438C67.4156 34.5 67.9641 34.2728 68.3685 33.8684C68.7728 33.4641 69 32.9156 69 32.3438C69 31.7719 68.7728 31.2234 68.3685 30.8191C67.9641 30.4147 67.4156 30.1875 66.8438 30.1875H40.9688C40.3969 30.1875 39.8484 30.4147 39.444 30.8191C39.0397 31.2234 38.8125 31.7719 38.8125 32.3438C38.8125 32.9156 39.0397 33.4641 39.444 33.8684C39.8484 34.2728 40.3969 34.5 40.9688 34.5Z" fill="white"/>
<path d="M40.9688 43.125H62.5312C63.1031 43.125 63.6516 42.8978 64.056 42.4935C64.4603 42.0891 64.6875 41.5406 64.6875 40.9688C64.6875 40.3969 64.4603 39.8484 64.056 39.444C63.6516 39.0397 63.1031 38.8125 62.5312 38.8125H40.9688C40.3969 38.8125 39.8484 39.0397 39.444 39.444C39.0397 39.8484 38.8125 40.3969 38.8125 40.9688C38.8125 41.5406 39.0397 42.0891 39.444 42.4935C39.8484 42.8978 40.3969 43.125 40.9688 43.125Z" fill="white"/>
<path d="M40.9688 51.75H58.2188C58.7906 51.75 59.3391 51.5228 59.7435 51.1185C60.1478 50.7141 60.375 50.1656 60.375 49.5938C60.375 49.0219 60.1478 48.4734 59.7435 48.069C59.3391 47.6647 58.7906 47.4375 58.2188 47.4375H40.9688C40.3969 47.4375 39.8484 47.6647 39.444 48.069C39.0397 48.4734 38.8125 49.0219 38.8125 49.5938C38.8125 50.1656 39.0397 50.7141 39.444 51.1185C39.8484 51.5228 40.3969 51.75 40.9688 51.75Z" fill="white"/>
</svg>
