<svg width="86" height="86" viewBox="0 0 86 86" fill="none" xmlns="http://www.w3.org/2000/svg">
<path d="M76.5938 53.75H71.5762L77.9012 27.1854C77.9825 26.8417 77.9251 26.4798 77.7415 26.178C77.5579 25.8762 77.2629 25.6588 76.9203 25.5729L71.5453 24.2292C71.2042 24.1437 70.8432 24.1953 70.5397 24.3729C70.2363 24.5505 70.0145 24.84 69.922 25.1792L62.1296 53.75H59.0901C59.9794 52.5939 60.4638 51.1774 60.4688 49.7188V45.6875H56.4375C54.8594 45.6913 53.3331 46.2504 52.1259 47.2669C50.9188 48.2833 50.108 49.6922 49.8357 51.2466C49.3197 50.4986 48.6557 49.8643 47.8849 49.3831C47.114 48.9019 46.2526 48.584 45.354 48.4489C44.4553 48.3139 43.5385 48.3647 42.6603 48.5981C41.782 48.8316 40.961 49.2427 40.248 49.8061C43 38.0403 43 37.8938 43 37.625C42.9997 36.8795 42.8443 36.1421 42.5437 35.4599C42.2431 34.7776 41.8039 34.1653 41.2539 33.6619C40.7039 33.1586 40.0552 32.7752 39.349 32.536C38.6429 32.2969 37.8947 32.2073 37.152 32.2729C36.6055 30.6944 35.5806 29.3254 34.2199 28.3565C32.8591 27.3876 31.2302 26.867 29.5598 26.867C27.8894 26.867 26.2605 27.3876 24.8997 28.3565C23.539 29.3254 22.5141 30.6944 21.9676 32.2729C21.2254 32.2081 20.4778 32.2983 19.7722 32.5378C19.0667 32.7772 18.4187 33.1608 17.8693 33.6641C17.3199 34.1674 16.8811 34.7794 16.5809 35.4612C16.2806 36.1431 16.1253 36.88 16.125 37.625C16.125 37.9892 16.1331 38.5979 18.4094 45.7816C18.0984 45.7282 17.7841 45.6968 17.4688 45.6875H13.4375V49.7188C13.4424 51.1774 13.9269 52.5939 14.8162 53.75H9.40625C9.04987 53.75 8.70808 53.8916 8.45608 54.1436C8.20407 54.3956 8.0625 54.7374 8.0625 55.0938C8.0625 67.6001 19.7881 75.5188 22.8438 77.3664V81.9688C22.8438 82.3252 22.9853 82.667 23.2373 82.919C23.4893 83.171 23.8311 83.3125 24.1875 83.3125H61.8125C62.1689 83.3125 62.5107 83.171 62.7627 82.919C63.0147 82.667 63.1562 82.3252 63.1562 81.9688V77.3664C66.2119 75.5188 77.9375 67.6001 77.9375 55.0938C77.9375 54.7374 77.7959 54.3956 77.5439 54.1436C77.2919 53.8916 76.9501 53.75 76.5938 53.75ZM72.1688 27.1545L74.9786 27.856L68.8134 53.75H64.9166L72.1688 27.1545ZM52.4062 52.4063C52.4062 51.3371 52.831 50.3118 53.587 49.5558C54.343 48.7998 55.3683 48.375 56.4375 48.375H57.7812V49.7188C57.7812 50.7879 57.3565 51.8133 56.6005 52.5693C55.8445 53.3253 54.8192 53.75 53.75 53.75H52.4062V52.4063ZM44.3438 51.0625C45.1772 51.0635 45.99 51.3224 46.6706 51.8035C47.3512 52.2847 47.8663 52.9646 48.1452 53.75H40.5423C40.8212 52.9646 41.3363 52.2847 42.0169 51.8035C42.6975 51.3224 43.5103 51.0635 44.3438 51.0625ZM37.3952 53.75H29.7923C30.0698 52.9635 30.5845 52.2825 31.2654 51.8008C31.9462 51.319 32.7597 51.0604 33.5938 51.0604C34.4278 51.0604 35.2413 51.319 35.9221 51.8008C36.603 52.2825 37.1177 52.9635 37.3952 53.75ZM18.8125 37.625C18.8028 37.1852 18.9032 36.7499 19.1045 36.3587C19.3058 35.9675 19.6016 35.6328 19.9652 35.385C20.3287 35.1372 20.7484 34.9842 21.1861 34.9399C21.6238 34.8955 22.0657 34.9612 22.4715 35.131C22.6582 35.2023 22.8583 35.231 23.0574 35.2151C23.2565 35.1993 23.4496 35.1392 23.6226 35.0393C23.7956 34.9395 23.9441 34.8023 24.0574 34.6377C24.1707 34.4732 24.2459 34.2855 24.2775 34.0883C24.4731 32.827 25.1133 31.6772 26.0826 30.8467C27.0518 30.0161 28.2861 29.5596 29.5625 29.5596C30.8389 29.5596 32.0732 30.0161 33.0424 30.8467C34.0117 31.6772 34.6519 32.827 34.8475 34.0883C34.8791 34.2855 34.9543 34.4732 35.0676 34.6377C35.1809 34.8023 35.3294 34.9395 35.5024 35.0393C35.6754 35.1392 35.8685 35.1993 36.0676 35.2151C36.2667 35.231 36.4668 35.2023 36.6535 35.131C37.0522 34.9643 37.4857 34.898 37.916 34.9379C38.3463 34.9778 38.7603 35.1227 39.1215 35.3599C39.4828 35.5971 39.7803 35.9193 39.9879 36.2983C40.1956 36.6773 40.307 37.1015 40.3125 37.5337C40.1324 38.4864 38.5576 45.2428 37.5229 49.6677C36.3837 48.8305 35.0075 48.3778 33.5938 48.375C32.0455 48.377 30.5452 48.9127 29.3458 49.8918C28.1464 50.8708 27.3213 52.2335 27.0094 53.75H24.1875V52.4063C24.1838 51.4095 23.957 50.4262 23.5238 49.5284C23.0906 48.6307 22.462 47.8413 21.6841 47.2181C19.1874 39.4337 18.8407 37.8763 18.8125 37.625ZM16.125 49.7188V48.375H17.4688C18.5379 48.375 19.5633 48.7998 20.3193 49.5558C21.0753 50.3118 21.5 51.3371 21.5 52.4063V53.75H20.1562C19.0871 53.75 18.0617 53.3253 17.3057 52.5693C16.5497 51.8133 16.125 50.7879 16.125 49.7188ZM61.4497 75.25H55.0938V77.9375H60.4688V80.625H25.5312V77.9375H43V75.25H24.5503C23.0373 74.3551 15.3497 69.4867 12.1556 61.8125H26.875V59.125H11.2673C11.0402 58.2433 10.8856 57.3445 10.8051 56.4375H75.1949C75.1144 57.3445 74.9598 58.2433 74.7327 59.125H45.6875V61.8125H73.8444C70.6503 69.4867 62.9627 74.3551 61.4497 75.25Z" fill="#FFED8F"/>
<path d="M29.5625 59.125H32.25V61.8125H29.5625V59.125Z" fill="#FFED8F"/>
<path d="M34.9375 59.125H37.625V61.8125H34.9375V59.125Z" fill="#FFED8F"/>
<path d="M40.3125 59.125H43V61.8125H40.3125V59.125Z" fill="#FFED8F"/>
<path d="M40.9723 23.3194C40.6342 24.0953 40.5542 24.9591 40.7438 25.7839C41.323 28.4983 44.4553 31.2583 48.031 32.2057C50.7631 32.9492 53.5634 33.4143 56.3891 33.5938H56.4375C56.6846 33.5936 56.9269 33.5254 57.1377 33.3965C57.3485 33.2677 57.5197 33.0832 57.6325 32.8633C57.7453 32.6434 57.7952 32.3968 57.7769 32.1503C57.7586 31.9039 57.6727 31.6673 57.5286 31.4666C57.5139 31.4451 56.0089 29.3542 53.4705 26.0553C52.3431 24.5893 49.3492 21.1372 45.9079 20.7287C44.8597 20.5981 43.7973 20.8067 42.8764 21.324C42.1312 20.9855 41.4959 20.4448 41.0427 19.7633C40.5895 19.0818 40.3365 18.2868 40.3125 17.4688H37.625C37.6242 18.6512 37.9328 19.8133 38.52 20.8396C39.1071 21.8659 39.9526 22.7208 40.9723 23.3194ZM45.2588 23.3772C45.3698 23.3772 45.4807 23.3844 45.5908 23.3987C47.2503 23.5949 49.4527 25.241 51.342 27.6987C52.2034 28.8194 52.9451 29.7977 53.5471 30.6012C51.9204 30.3622 50.3085 30.0316 48.719 29.6109C45.9213 28.8705 43.6961 26.7473 43.3722 25.2276C43.303 24.9837 43.3112 24.7243 43.3957 24.4853C43.4802 24.2463 43.6368 24.0394 43.8439 23.8932C44.2392 23.559 44.7412 23.3773 45.2588 23.3812V23.3772Z" fill="#FFED8F"/>
<path d="M24.1875 40.3125H26.875V43H24.1875V40.3125Z" fill="#FFED8F"/>
<path d="M30.9062 43H33.5938V45.6875H30.9062V43Z" fill="#FFED8F"/>
<path d="M14.7073 24.1875C15.0594 24.2063 16.3319 24.2681 18.0143 24.2681C21.3616 24.2681 26.3281 24.0208 28.8463 22.6892C30.521 21.7092 31.7564 20.1247 32.2984 18.2615C32.6247 17.3843 32.7747 16.4513 32.7397 15.516C32.7046 14.5807 32.4852 13.6616 32.0941 12.8113C30.4373 9.67495 25.4224 9.21001 22.2162 10.9058C18.3852 12.9309 14.0623 21.289 13.5826 22.235C13.4809 22.4344 13.4306 22.656 13.4363 22.8798C13.442 23.1036 13.5035 23.3224 13.6152 23.5164C13.727 23.7104 13.8854 23.8733 14.0761 23.9905C14.2668 24.1077 14.4838 24.1754 14.7073 24.1875ZM22.5401 16.7632L18.4443 19.1524C19.0745 18.1567 19.7639 17.1556 20.4599 16.2445L22.5401 16.7632ZM24.1875 18.9119V21.211C22.6883 21.4042 21.1798 21.5167 19.6685 21.5483L24.1875 18.9119ZM29.7426 17.4338C29.4095 18.6286 28.6429 19.6563 27.5926 20.3161C27.3607 20.4293 27.1214 20.5267 26.8763 20.6077V17.3451L30.0382 15.5001C30.0483 16.1553 29.9484 16.8076 29.7426 17.4297V17.4338ZM28.728 13.1566L25.8632 14.8282L22.5105 13.9897C22.806 13.7213 23.13 13.4861 23.4767 13.2883C24.2874 12.8785 25.179 12.6538 26.0871 12.6303C26.9952 12.6068 27.8972 12.7852 28.728 13.1526V13.1566Z" fill="#FFED8F"/>
<path d="M60.4688 13.4375H63.1562C63.5126 13.4375 63.8544 13.2959 64.1064 13.0439C64.3584 12.7919 64.5 12.4501 64.5 12.0938C64.4972 9.59993 63.5052 7.20907 61.7418 5.44567C59.9784 3.68227 57.5876 2.69035 55.0938 2.6875H52.4062C52.0499 2.6875 51.7081 2.82907 51.4561 3.08108C51.2041 3.33308 51.0625 3.67487 51.0625 4.03125C51.0653 6.52507 52.0573 8.91593 53.8207 10.6793C55.5841 12.4427 57.9749 13.4347 60.4688 13.4375ZM55.0938 5.375C56.6421 5.3767 58.1425 5.91228 59.3419 6.89141C60.5414 7.87055 61.3665 9.23334 61.6781 10.75H60.4688C58.9204 10.7483 57.42 10.2127 56.2206 9.23359C55.0211 8.25445 54.196 6.89166 53.8844 5.375H55.0938Z" fill="#FFED8F"/>
<path d="M44.3438 13.4375C45.1411 13.4375 45.9205 13.2011 46.5834 12.7581C47.2463 12.3152 47.763 11.6856 48.0681 10.9489C48.3733 10.2123 48.4531 9.40178 48.2975 8.61979C48.142 7.83781 47.7581 7.11951 47.1943 6.55573C46.6305 5.99195 45.9122 5.60801 45.1302 5.45246C44.3482 5.29691 43.5377 5.37675 42.8011 5.68186C42.0644 5.98698 41.4348 6.50367 40.9919 7.16661C40.5489 7.82954 40.3125 8.60895 40.3125 9.40625C40.3125 10.4754 40.7372 11.5008 41.4932 12.2568C42.2492 13.0128 43.2746 13.4375 44.3438 13.4375ZM44.3438 8.0625C44.6095 8.0625 44.8693 8.14131 45.0903 8.28896C45.3113 8.43662 45.4835 8.64648 45.5852 8.89202C45.6869 9.13756 45.7135 9.40774 45.6617 9.6684C45.6098 9.92907 45.4819 10.1685 45.2939 10.3564C45.106 10.5444 44.8666 10.6723 44.6059 10.7242C44.3452 10.776 44.0751 10.7494 43.8295 10.6477C43.584 10.546 43.3741 10.3738 43.2265 10.1528C43.0788 9.93182 43 9.67202 43 9.40625C43 9.04987 43.1416 8.70808 43.3936 8.45608C43.6456 8.20408 43.9874 8.0625 44.3438 8.0625Z" fill="#FFED8F"/>
<path d="M59.125 21.5C59.125 22.2973 59.3614 23.0767 59.8044 23.7396C60.2474 24.4026 60.8769 24.9193 61.6136 25.2244C62.3502 25.5295 63.1607 25.6093 63.9427 25.4538C64.7247 25.2982 65.443 24.9143 66.0068 24.3505C66.5706 23.7867 66.9545 23.0684 67.11 22.2865C67.2656 21.5045 67.1858 20.6939 66.8806 19.9573C66.5755 19.2207 66.0588 18.5911 65.3959 18.1481C64.733 17.7052 63.9536 17.4687 63.1563 17.4688C62.0871 17.4688 61.0617 17.8935 60.3057 18.6495C59.5497 19.4055 59.125 20.4308 59.125 21.5ZM64.5 21.5C64.5 21.7658 64.4212 22.0256 64.2735 22.2465C64.1259 22.4675 63.916 22.6398 63.6705 22.7415C63.4249 22.8432 63.1548 22.8698 62.8941 22.8179C62.6334 22.7661 62.394 22.6381 62.2061 22.4502C62.0181 22.2622 61.8902 22.0228 61.8383 21.7622C61.7865 21.5015 61.8131 21.2313 61.9148 20.9858C62.0165 20.7402 62.1887 20.5304 62.4097 20.3827C62.6307 20.2351 62.8905 20.1562 63.1563 20.1562C63.5126 20.1562 63.8544 20.2978 64.1064 20.5498C64.3584 20.8018 64.5 21.1436 64.5 21.5Z" fill="#FFED8F"/>
<path d="M49.7188 38.9688H52.4062V41.6562H49.7188V38.9688Z" fill="#FFED8F"/>
<path d="M53.75 16.125H56.4375V18.8125H53.75V16.125Z" fill="#FFED8F"/>
<path d="M32.25 4.03125H34.9375V6.71875H32.25V4.03125Z" fill="#FFED8F"/>
<path d="M60.4688 33.5938H63.1562V36.2812H60.4688V33.5938Z" fill="#FFED8F"/>
</svg>
