<svg width="168" height="168" viewBox="0 0 168 168" fill="none" xmlns="http://www.w3.org/2000/svg">
<g clip-path="url(#clip0)">
<path d="M153.441 77.4946L140.278 57.75H112.107L113.943 45.9375H101.924C100.685 33.4284 90.1031 23.625 77.2738 23.625C64.4444 23.625 53.8627 33.4284 52.6234 45.9375H22.1484V50.8594H52.623C53.8624 63.3685 64.4441 73.1719 77.2734 73.1719C90.1028 73.1719 100.685 63.3685 101.924 50.8594H108.197L99.1184 109.266H53.1458C44.1292 95.2567 23.7713 95.2898 14.7758 109.266H0V124.031H11.2911C12.5226 135.452 22.218 144.375 33.9609 144.375C45.7039 144.375 55.3993 135.452 56.6308 124.031H103.494C104.726 135.452 114.421 144.375 126.164 144.375C137.907 144.375 147.602 135.452 148.834 124.031H168C168 119.513 168 97.0718 168 93.3516C168 85.0326 161.585 78.1843 153.441 77.4946ZM77.2734 68.25C66.3272 68.25 57.4219 59.3444 57.4219 48.3984C57.4219 37.4525 66.3272 28.5469 77.2734 28.5469C88.2197 28.5469 97.125 37.4525 97.125 48.3984C97.125 59.3444 88.2197 68.25 77.2734 68.25ZM11.2911 119.109H4.92188V114.188H12.3897C11.8502 115.759 11.4749 117.405 11.2911 119.109ZM33.9609 139.453C24.1005 139.453 16.0781 131.431 16.0781 121.57C16.0781 111.71 24.1005 103.688 33.9609 103.688C43.8214 103.688 51.8438 111.71 51.8438 121.57C51.8438 131.431 43.8214 139.453 33.9609 139.453ZM122.999 62.6719H137.644L147.488 77.4375H120.538L122.999 62.6719ZM103.494 119.109H56.6308C56.447 117.405 56.0716 115.759 55.5322 114.188H104.593C104.053 115.759 103.678 117.405 103.494 119.109ZM126.164 139.453C116.304 139.453 108.281 131.431 108.281 121.57C108.281 111.71 116.304 103.688 126.164 103.688C136.025 103.688 144.047 111.71 144.047 121.57C144.047 131.431 136.025 139.453 126.164 139.453ZM163.078 119.109H148.834C148.65 117.405 148.275 115.759 147.735 114.188H163.078V119.109ZM163.078 109.266H145.349C136.332 95.2567 115.974 95.2898 106.979 109.266H104.099L111.342 62.6719H118.009L114.727 82.3594H152.086C157.3 82.3594 161.676 86.0111 162.797 90.8906H154.055C149.984 90.8906 146.672 94.2027 146.672 98.2734C146.672 102.344 149.984 105.656 154.055 105.656H163.078V109.266ZM163.078 100.734H154.055C150.798 100.734 150.801 95.8125 154.055 95.8125H163.078V100.734Z" fill="white"/>
<path d="M5.08594 58.4062H10.0078V63.3281H5.08594V58.4062Z" fill="white"/>
<path d="M14.9297 58.4062H36.9141V63.3281H14.9297V58.4062Z" fill="white"/>
<path d="M15.2578 70.3828H20.1797V75.3047H15.2578V70.3828Z" fill="white"/>
<path d="M25.1016 70.3828H53.3203V75.3047H25.1016V70.3828Z" fill="white"/>
<path d="M10.3359 82.3594H38.5547V87.2812H10.3359V82.3594Z" fill="white"/>
<path d="M0.492188 82.3594H5.41406V87.2812H0.492188V82.3594Z" fill="white"/>
<path d="M33.9609 114.188C29.8899 114.188 26.5781 117.5 26.5781 121.57C26.5781 125.641 29.8899 128.953 33.9609 128.953C38.032 128.953 41.3438 125.641 41.3438 121.57C41.3438 117.5 38.032 114.188 33.9609 114.188ZM31.5 121.57C31.5 118.313 36.4219 118.317 36.4219 121.57C36.4219 122.927 31.5 124.824 31.5 121.57Z" fill="white"/>
<path d="M126.164 114.188C122.093 114.188 118.781 117.5 118.781 121.57C118.781 125.641 122.093 128.953 126.164 128.953C130.235 128.953 133.547 125.641 133.547 121.57C133.547 117.5 130.235 114.188 126.164 114.188ZM126.164 124.031C122.907 124.031 122.91 119.109 126.164 119.109C129.421 119.109 129.418 124.031 126.164 124.031Z" fill="white"/>
<path d="M80.0625 34.2891H75.1406V52.1719H86.7891V47.25H80.0625V34.2891Z" fill="white"/>
</g>
<defs>
<clipPath id="clip0">
<rect width="168" height="168" fill="white"/>
</clipPath>
</defs>
</svg>
